<svg xmlns="http://www.w3.org/2000/svg" xmlns:xlink="http://www.w3.org/1999/xlink" viewBox="0 0 984 984"><defs><style>.cls-1{fill:#fff;}.cls-2{mask:url(#mask);}</style><mask id="mask" x="0" y="0" width="984" height="984" maskUnits="userSpaceOnUse"><g id="qrmask"><rect class="cls-1" x="240" y="48" width="24.72" height="24.72"/><rect class="cls-1" x="264" y="48" width="24.72" height="24.72"/><rect class="cls-1" x="360" y="48" width="24.72" height="24.72"/><rect class="cls-1" x="384" y="48" width="24.72" height="24.72"/><rect class="cls-1" x="432" y="48" width="24.72" height="24.72"/><rect class="cls-1" x="456" y="48" width="24.72" height="24.72"/><rect class="cls-1" x="480" y="48" width="24.72" height="24.72"/><rect class="cls-1" x="504" y="48" width="24.72" height="24.72"/><rect class="cls-1" x="552" y="48" width="24.72" height="24.72"/><rect class="cls-1" x="600" y="48" width="24.72" height="24.72"/><rect class="cls-1" x="648" y="48" width="24.72" height="24.72"/><rect class="cls-1" x="720" y="48" width="24.72" height="24.72"/><rect class="cls-1" x="240" y="72" width="24.72" height="24.72"/><rect class="cls-1" x="288" y="72" width="24.72" height="24.72"/><rect class="cls-1" x="312" y="72" width="24.72" height="24.72"/><rect class="cls-1" x="360" y="72" width="24.72" height="24.72"/><rect class="cls-1" x="432" y="72" width="24.72" height="24.72"/><rect class="cls-1" x="456" y="72" width="24.72" height="24.72"/><rect class="cls-1" x="504" y="72" width="24.72" height="24.72"/><rect class="cls-1" x="648" y="72" width="24.72" height="24.72"/><rect class="cls-1" x="672" y="72" width="24.72" height="24.72"/><rect class="cls-1" x="696" y="72" width="24.72" height="24.72"/><rect class="cls-1" x="240" y="96" width="24.72" height="24.72"/><rect class="cls-1" x="264" y="96" width="24.72" height="24.72"/><rect class="cls-1" x="312" y="96" width="24.72" height="24.72"/><rect class="cls-1" x="336" y="96" width="24.72" height="24.72"/><rect class="cls-1" x="360" y="96" width="24.72" height="24.72"/><rect class="cls-1" x="384" y="96" width="24.72" height="24.72"/><rect class="cls-1" x="480" y="96" width="24.72" height="24.72"/><rect class="cls-1" x="504" y="96" width="24.72" height="24.72"/><rect class="cls-1" x="552" y="96" width="24.72" height="24.72"/><rect class="cls-1" x="672" y="96" width="24.72" height="24.72"/><rect class="cls-1" x="696" y="96" width="24.72" height="24.72"/><rect class="cls-1" x="720" y="96" width="24.72" height="24.72"/><rect class="cls-1" x="264" y="120" width="24.72" height="24.72"/><rect class="cls-1" x="528" y="120" width="24.72" height="24.72"/><rect class="cls-1" x="552" y="120" width="24.72" height="24.72"/><rect class="cls-1" x="624" y="120" width="24.72" height="24.72"/><rect class="cls-1" x="648" y="120" width="24.72" height="24.72"/><rect class="cls-1" x="672" y="120" width="24.72" height="24.72"/><rect class="cls-1" x="264" y="144" width="24.72" height="24.72"/><rect class="cls-1" x="288" y="144" width="24.72" height="24.72"/><rect class="cls-1" x="360" y="144" width="24.72" height="24.72"/><rect class="cls-1" x="384" y="144" width="24.72" height="24.72"/><rect class="cls-1" x="528" y="144" width="24.72" height="24.72"/><rect class="cls-1" x="624" y="144" width="24.72" height="24.72"/><rect class="cls-1" x="672" y="144" width="24.72" height="24.72"/><rect class="cls-1" x="240" y="168" width="24.72" height="24.72"/><rect class="cls-1" x="264" y="168" width="24.72" height="24.72"/><rect class="cls-1" x="312" y="168" width="24.72" height="24.72"/><rect class="cls-1" x="360" y="168" width="24.72" height="24.72"/><rect class="cls-1" x="384" y="168" width="24.72" height="24.72"/><rect class="cls-1" x="456" y="168" width="24.72" height="24.72"/><rect class="cls-1" x="504" y="168" width="24.72" height="24.72"/><rect class="cls-1" x="552" y="168" width="24.72" height="24.72"/><rect class="cls-1" x="600" y="168" width="24.72" height="24.72"/><rect class="cls-1" x="696" y="168" width="24.72" height="24.72"/><rect class="cls-1" x="720" y="168" width="24.72" height="24.72"/><rect class="cls-1" x="240" y="192" width="24.72" height="24.72"/><rect class="cls-1" x="288" y="192" width="24.72" height="24.72"/><rect class="cls-1" x="336" y="192" width="24.72" height="24.72"/><rect class="cls-1" x="384" y="192" width="24.72" height="24.72"/><rect class="cls-1" x="432" y="192" width="24.72" height="24.72"/><rect class="cls-1" x="480" y="192" width="24.72" height="24.72"/><rect class="cls-1" x="528" y="192" width="24.72" height="24.72"/><rect class="cls-1" x="576" y="192" width="24.72" height="24.72"/><rect class="cls-1" x="624" y="192" width="24.72" height="24.72"/><rect class="cls-1" x="672" y="192" width="24.72" height="24.72"/><rect class="cls-1" x="720" y="192" width="24.72" height="24.72"/><rect class="cls-1" x="240" y="216" width="24.72" height="24.72"/><rect class="cls-1" x="264" y="216" width="24.72" height="24.72"/><rect class="cls-1" x="288" y="216" width="24.72" height="24.72"/><rect class="cls-1" x="336" y="216" width="24.72" height="24.72"/><rect class="cls-1" x="408" y="216" width="24.72" height="24.72"/><rect class="cls-1" x="432" y="216" width="24.72" height="24.72"/><rect class="cls-1" x="456" y="216" width="24.72" height="24.72"/><rect class="cls-1" x="480" y="216" width="24.72" height="24.72"/><rect class="cls-1" x="528" y="216" width="24.72" height="24.72"/><rect class="cls-1" x="576" y="216" width="24.72" height="24.72"/><rect class="cls-1" x="600" y="216" width="24.72" height="24.72"/><rect class="cls-1" x="672" y="216" width="24.72" height="24.72"/><rect class="cls-1" x="720" y="216" width="24.72" height="24.72"/><rect class="cls-1" x="96" y="240" width="24.72" height="24.72"/><rect class="cls-1" x="120" y="240" width="24.72" height="24.72"/><rect class="cls-1" x="144" y="240" width="24.72" height="24.72"/><rect class="cls-1" x="192" y="240" width="24.72" height="24.72"/><rect class="cls-1" x="240" y="240" width="24.72" height="24.72"/><rect class="cls-1" x="264" y="240" width="24.72" height="24.72"/><rect class="cls-1" x="384" y="240" width="24.72" height="24.72"/><rect class="cls-1" x="480" y="240" width="24.72" height="24.72"/><rect class="cls-1" x="504" y="240" width="24.72" height="24.72"/><rect class="cls-1" x="528" y="240" width="24.72" height="24.72"/><rect class="cls-1" x="552" y="240" width="24.72" height="24.72"/><rect class="cls-1" x="624" y="240" width="24.72" height="24.72"/><rect class="cls-1" x="744" y="240" width="24.72" height="24.72"/><rect class="cls-1" x="768" y="240" width="24.72" height="24.72"/><rect class="cls-1" x="792" y="240" width="24.72" height="24.72"/><rect class="cls-1" x="864" y="240" width="24.72" height="24.72"/><rect class="cls-1" x="888" y="240" width="24.72" height="24.72"/><rect class="cls-1" x="912" y="240" width="24.72" height="24.72"/><rect class="cls-1" x="96" y="264" width="24.72" height="24.72"/><rect class="cls-1" x="144" y="264" width="24.72" height="24.72"/><rect class="cls-1" x="168" y="264" width="24.72" height="24.72"/><rect class="cls-1" x="216" y="264" width="24.72" height="24.72"/><rect class="cls-1" x="264" y="264" width="24.72" height="24.72"/><rect class="cls-1" x="288" y="264" width="24.72" height="24.72"/><rect class="cls-1" x="336" y="264" width="24.72" height="24.72"/><rect class="cls-1" x="408" y="264" width="24.72" height="24.72"/><rect class="cls-1" x="480" y="264" width="24.72" height="24.72"/><rect class="cls-1" x="504" y="264" width="24.72" height="24.72"/><rect class="cls-1" x="528" y="264" width="24.72" height="24.72"/><rect class="cls-1" x="552" y="264" width="24.72" height="24.72"/><rect class="cls-1" x="600" y="264" width="24.72" height="24.72"/><rect class="cls-1" x="624" y="264" width="24.72" height="24.72"/><rect class="cls-1" x="648" y="264" width="24.72" height="24.72"/><rect class="cls-1" x="672" y="264" width="24.72" height="24.72"/><rect class="cls-1" x="696" y="264" width="24.72" height="24.72"/><rect class="cls-1" x="720" y="264" width="24.72" height="24.72"/><rect class="cls-1" x="744" y="264" width="24.72" height="24.72"/><rect class="cls-1" x="768" y="264" width="24.72" height="24.72"/><rect class="cls-1" x="840" y="264" width="24.72" height="24.72"/><rect class="cls-1" x="48" y="288" width="24.72" height="24.72"/><rect class="cls-1" x="72" y="288" width="24.72" height="24.72"/><rect class="cls-1" x="168" y="288" width="24.72" height="24.72"/><rect class="cls-1" x="192" y="288" width="24.72" height="24.72"/><rect class="cls-1" x="288" y="288" width="24.72" height="24.72"/><rect class="cls-1" x="336" y="288" width="24.72" height="24.72"/><rect class="cls-1" x="360" y="288" width="24.72" height="24.72"/><rect class="cls-1" x="384" y="288" width="24.72" height="24.72"/><rect class="cls-1" x="408" y="288" width="24.72" height="24.72"/><rect class="cls-1" x="480" y="288" width="24.72" height="24.72"/><rect class="cls-1" x="528" y="288" width="24.72" height="24.72"/><rect class="cls-1" x="648" y="288" width="24.72" height="24.72"/><rect class="cls-1" x="672" y="288" width="24.72" height="24.72"/><rect class="cls-1" x="768" y="288" width="24.72" height="24.72"/><rect class="cls-1" x="792" y="288" width="24.72" height="24.72"/><rect class="cls-1" x="840" y="288" width="24.72" height="24.72"/><rect class="cls-1" x="864" y="288" width="24.72" height="24.72"/><rect class="cls-1" x="888" y="288" width="24.72" height="24.72"/><rect class="cls-1" x="912" y="288" width="24.72" height="24.72"/><rect class="cls-1" x="48" y="312" width="24.72" height="24.72"/><rect class="cls-1" x="72" y="312" width="24.72" height="24.72"/><rect class="cls-1" x="120" y="312" width="24.72" height="24.72"/><rect class="cls-1" x="240" y="312" width="24.72" height="24.72"/><rect class="cls-1" x="264" y="312" width="24.72" height="24.72"/><rect class="cls-1" x="288" y="312" width="24.72" height="24.72"/><rect class="cls-1" x="336" y="312" width="24.72" height="24.72"/><rect class="cls-1" x="384" y="312" width="24.72" height="24.72"/><rect class="cls-1" x="408" y="312" width="24.72" height="24.72"/><rect class="cls-1" x="456" y="312" width="24.72" height="24.72"/><rect class="cls-1" x="480" y="312" width="24.72" height="24.72"/><rect class="cls-1" x="504" y="312" width="24.72" height="24.72"/><rect class="cls-1" x="528" y="312" width="24.72" height="24.72"/><rect class="cls-1" x="552" y="312" width="24.72" height="24.72"/><rect class="cls-1" x="600" y="312" width="24.72" height="24.72"/><rect class="cls-1" x="624" y="312" width="24.72" height="24.72"/><rect class="cls-1" x="672" y="312" width="24.72" height="24.72"/><rect class="cls-1" x="720" y="312" width="24.72" height="24.72"/><rect class="cls-1" x="768" y="312" width="24.72" height="24.72"/><rect class="cls-1" x="840" y="312" width="24.72" height="24.72"/><rect class="cls-1" x="72" y="336" width="24.72" height="24.72"/><rect class="cls-1" x="96" y="336" width="24.72" height="24.72"/><rect class="cls-1" x="192" y="336" width="24.72" height="24.72"/><rect class="cls-1" x="216" y="336" width="24.72" height="24.72"/><rect class="cls-1" x="312" y="336" width="24.72" height="24.72"/><rect class="cls-1" x="384" y="336" width="24.72" height="24.72"/><rect class="cls-1" x="432" y="336" width="24.72" height="24.72"/><rect class="cls-1" x="552" y="336" width="24.72" height="24.72"/><rect class="cls-1" x="576" y="336" width="24.72" height="24.72"/><rect class="cls-1" x="600" y="336" width="24.72" height="24.72"/><rect class="cls-1" x="624" y="336" width="24.72" height="24.72"/><rect class="cls-1" x="648" y="336" width="24.72" height="24.72"/><rect class="cls-1" x="672" y="336" width="24.72" height="24.72"/><rect class="cls-1" x="744" y="336" width="24.72" height="24.72"/><rect class="cls-1" x="768" y="336" width="24.72" height="24.72"/><rect class="cls-1" x="816" y="336" width="24.72" height="24.72"/><rect class="cls-1" x="840" y="336" width="24.72" height="24.72"/><rect class="cls-1" x="864" y="336" width="24.72" height="24.72"/><rect class="cls-1" x="888" y="336" width="24.72" height="24.72"/><rect class="cls-1" x="48" y="360" width="24.72" height="24.72"/><rect class="cls-1" x="168" y="360" width="24.72" height="24.72"/><rect class="cls-1" x="216" y="360" width="24.72" height="24.72"/><rect class="cls-1" x="240" y="360" width="24.72" height="24.72"/><rect class="cls-1" x="288" y="360" width="24.72" height="24.72"/><rect class="cls-1" x="312" y="360" width="24.72" height="24.72"/><rect class="cls-1" x="408" y="360" width="24.72" height="24.72"/><rect class="cls-1" x="456" y="360" width="24.72" height="24.72"/><rect class="cls-1" x="504" y="360" width="24.72" height="24.72"/><rect class="cls-1" x="528" y="360" width="24.72" height="24.72"/><rect class="cls-1" x="576" y="360" width="24.72" height="24.72"/><rect class="cls-1" x="600" y="360" width="24.72" height="24.72"/><rect class="cls-1" x="648" y="360" width="24.72" height="24.72"/><rect class="cls-1" x="672" y="360" width="24.72" height="24.72"/><rect class="cls-1" x="720" y="360" width="24.72" height="24.72"/><rect class="cls-1" x="744" y="360" width="24.72" height="24.72"/><rect class="cls-1" x="792" y="360" width="24.72" height="24.72"/><rect class="cls-1" x="840" y="360" width="24.72" height="24.72"/><rect class="cls-1" x="864" y="360" width="24.72" height="24.72"/><rect class="cls-1" x="888" y="360" width="24.72" height="24.72"/><rect class="cls-1" x="96" y="384" width="24.72" height="24.72"/><rect class="cls-1" x="120" y="384" width="24.72" height="24.72"/><rect class="cls-1" x="144" y="384" width="24.72" height="24.72"/><rect class="cls-1" x="192" y="384" width="24.72" height="24.72"/><rect class="cls-1" x="216" y="384" width="24.72" height="24.72"/><rect class="cls-1" x="288" y="384" width="24.72" height="24.72"/><rect class="cls-1" x="312" y="384" width="24.72" height="24.72"/><rect class="cls-1" x="384" y="384" width="24.72" height="24.72"/><rect class="cls-1" x="408" y="384" width="24.72" height="24.72"/><rect class="cls-1" x="600" y="384" width="24.72" height="24.72"/><rect class="cls-1" x="696" y="384" width="24.72" height="24.72"/><rect class="cls-1" x="744" y="384" width="24.72" height="24.72"/><rect class="cls-1" x="840" y="384" width="24.72" height="24.72"/><rect class="cls-1" x="912" y="384" width="24.72" height="24.72"/><rect class="cls-1" x="48" y="408" width="24.72" height="24.72"/><rect class="cls-1" x="240" y="408" width="24.72" height="24.72"/><rect class="cls-1" x="264" y="408" width="24.72" height="24.72"/><rect class="cls-1" x="336" y="408" width="24.72" height="24.72"/><rect class="cls-1" x="384" y="408" width="24.72" height="24.72"/><rect class="cls-1" x="432" y="408" width="24.72" height="24.72"/><rect class="cls-1" x="456" y="408" width="24.72" height="24.72"/><rect class="cls-1" x="528" y="408" width="24.72" height="24.72"/><rect class="cls-1" x="552" y="408" width="24.72" height="24.72"/><rect class="cls-1" x="576" y="408" width="24.72" height="24.72"/><rect class="cls-1" x="672" y="408" width="24.72" height="24.72"/><rect class="cls-1" x="696" y="408" width="24.72" height="24.72"/><rect class="cls-1" x="720" y="408" width="24.72" height="24.72"/><rect class="cls-1" x="744" y="408" width="24.72" height="24.72"/><rect class="cls-1" x="792" y="408" width="24.72" height="24.72"/><rect class="cls-1" x="816" y="408" width="24.72" height="24.72"/><rect class="cls-1" x="72" y="432" width="24.72" height="24.72"/><rect class="cls-1" x="144" y="432" width="24.72" height="24.72"/><rect class="cls-1" x="168" y="432" width="24.72" height="24.72"/><rect class="cls-1" x="192" y="432" width="24.72" height="24.72"/><rect class="cls-1" x="264" y="432" width="24.72" height="24.72"/><rect class="cls-1" x="288" y="432" width="24.72" height="24.72"/><rect class="cls-1" x="336" y="432" width="24.72" height="24.72"/><rect class="cls-1" x="360" y="432" width="24.72" height="24.72"/><rect class="cls-1" x="384" y="432" width="24.72" height="24.72"/><rect class="cls-1" x="408" y="432" width="24.72" height="24.72"/><rect class="cls-1" x="504" y="432" width="24.72" height="24.72"/><rect class="cls-1" x="528" y="432" width="24.72" height="24.72"/><rect class="cls-1" x="624" y="432" width="24.72" height="24.72"/><rect class="cls-1" x="648" y="432" width="24.72" height="24.72"/><rect class="cls-1" x="672" y="432" width="24.72" height="24.72"/><rect class="cls-1" x="696" y="432" width="24.72" height="24.72"/><rect class="cls-1" x="744" y="432" width="24.72" height="24.72"/><rect class="cls-1" x="768" y="432" width="24.72" height="24.72"/><rect class="cls-1" x="816" y="432" width="24.72" height="24.72"/><rect class="cls-1" x="864" y="432" width="24.72" height="24.72"/><rect class="cls-1" x="912" y="432" width="24.72" height="24.72"/><rect class="cls-1" x="72" y="456" width="24.72" height="24.72"/><rect class="cls-1" x="96" y="456" width="24.72" height="24.72"/><rect class="cls-1" x="120" y="456" width="24.72" height="24.72"/><rect class="cls-1" x="216" y="456" width="24.72" height="24.72"/><rect class="cls-1" x="240" y="456" width="24.72" height="24.72"/><rect class="cls-1" x="264" y="456" width="24.72" height="24.72"/><rect class="cls-1" x="288" y="456" width="24.72" height="24.72"/><rect class="cls-1" x="312" y="456" width="24.72" height="24.72"/><rect class="cls-1" x="432" y="456" width="24.72" height="24.72"/><rect class="cls-1" x="456" y="456" width="24.72" height="24.72"/><rect class="cls-1" x="480" y="456" width="24.72" height="24.72"/><rect class="cls-1" x="528" y="456" width="24.72" height="24.72"/><rect class="cls-1" x="552" y="456" width="24.72" height="24.72"/><rect class="cls-1" x="576" y="456" width="24.72" height="24.72"/><rect class="cls-1" x="720" y="456" width="24.72" height="24.72"/><rect class="cls-1" x="792" y="456" width="24.72" height="24.72"/><rect class="cls-1" x="840" y="456" width="24.72" height="24.72"/><rect class="cls-1" x="48" y="480" width="24.72" height="24.72"/><rect class="cls-1" x="144" y="480" width="24.72" height="24.72"/><rect class="cls-1" x="192" y="480" width="24.72" height="24.72"/><rect class="cls-1" x="216" y="480" width="24.72" height="24.72"/><rect class="cls-1" x="240" y="480" width="24.72" height="24.72"/><rect class="cls-1" x="288" y="480" width="24.72" height="24.72"/><rect class="cls-1" x="312" y="480" width="24.72" height="24.72"/><rect class="cls-1" x="360" y="480" width="24.72" height="24.72"/><rect class="cls-1" x="432" y="480" width="24.72" height="24.72"/><rect class="cls-1" x="456" y="480" width="24.72" height="24.72"/><rect class="cls-1" x="480" y="480" width="24.72" height="24.72"/><rect class="cls-1" x="528" y="480" width="24.72" height="24.72"/><rect class="cls-1" x="576" y="480" width="24.72" height="24.72"/><rect class="cls-1" x="600" y="480" width="24.72" height="24.72"/><rect class="cls-1" x="624" y="480" width="24.72" height="24.72"/><rect class="cls-1" x="648" y="480" width="24.72" height="24.72"/><rect class="cls-1" x="696" y="480" width="24.72" height="24.72"/><rect class="cls-1" x="720" y="480" width="24.72" height="24.72"/><rect class="cls-1" x="744" y="480" width="24.72" height="24.72"/><rect class="cls-1" x="792" y="480" width="24.72" height="24.72"/><rect class="cls-1" x="816" y="480" width="24.72" height="24.72"/><rect class="cls-1" x="888" y="480" width="24.72" height="24.72"/><rect class="cls-1" x="912" y="480" width="24.72" height="24.72"/><rect class="cls-1" x="72" y="504" width="24.72" height="24.72"/><rect class="cls-1" x="168" y="504" width="24.72" height="24.72"/><rect class="cls-1" x="264" y="504" width="24.72" height="24.72"/><rect class="cls-1" x="336" y="504" width="24.72" height="24.72"/><rect class="cls-1" x="360" y="504" width="24.72" height="24.72"/><rect class="cls-1" x="408" y="504" width="24.72" height="24.72"/><rect class="cls-1" x="432" y="504" width="24.72" height="24.72"/><rect class="cls-1" x="456" y="504" width="24.72" height="24.72"/><rect class="cls-1" x="504" y="504" width="24.72" height="24.72"/><rect class="cls-1" x="528" y="504" width="24.72" height="24.72"/><rect class="cls-1" x="576" y="504" width="24.72" height="24.72"/><rect class="cls-1" x="696" y="504" width="24.72" height="24.72"/><rect class="cls-1" x="720" y="504" width="24.72" height="24.72"/><rect class="cls-1" x="768" y="504" width="24.72" height="24.72"/><rect class="cls-1" x="792" y="504" width="24.72" height="24.72"/><rect class="cls-1" x="840" y="504" width="24.72" height="24.72"/><rect class="cls-1" x="888" y="504" width="24.72" height="24.72"/><rect class="cls-1" x="120" y="528" width="24.72" height="24.72"/><rect class="cls-1" x="144" y="528" width="24.72" height="24.72"/><rect class="cls-1" x="168" y="528" width="24.72" height="24.72"/><rect class="cls-1" x="192" y="528" width="24.72" height="24.72"/><rect class="cls-1" x="216" y="528" width="24.72" height="24.72"/><rect class="cls-1" x="312" y="528" width="24.72" height="24.72"/><rect class="cls-1" x="336" y="528" width="24.72" height="24.72"/><rect class="cls-1" x="360" y="528" width="24.72" height="24.72"/><rect class="cls-1" x="384" y="528" width="24.72" height="24.72"/><rect class="cls-1" x="480" y="528" width="24.72" height="24.72"/><rect class="cls-1" x="504" y="528" width="24.72" height="24.72"/><rect class="cls-1" x="528" y="528" width="24.72" height="24.72"/><rect class="cls-1" x="576" y="528" width="24.72" height="24.72"/><rect class="cls-1" x="624" y="528" width="24.72" height="24.72"/><rect class="cls-1" x="648" y="528" width="24.72" height="24.72"/><rect class="cls-1" x="672" y="528" width="24.72" height="24.72"/><rect class="cls-1" x="696" y="528" width="24.72" height="24.72"/><rect class="cls-1" x="744" y="528" width="24.72" height="24.72"/><rect class="cls-1" x="768" y="528" width="24.72" height="24.72"/><rect class="cls-1" x="792" y="528" width="24.72" height="24.72"/><rect class="cls-1" x="816" y="528" width="24.72" height="24.72"/><rect class="cls-1" x="840" y="528" width="24.72" height="24.72"/><rect class="cls-1" x="864" y="528" width="24.72" height="24.72"/><rect class="cls-1" x="912" y="528" width="24.72" height="24.72"/><rect class="cls-1" x="96" y="552" width="24.72" height="24.72"/><rect class="cls-1" x="120" y="552" width="24.72" height="24.72"/><rect class="cls-1" x="144" y="552" width="24.72" height="24.72"/><rect class="cls-1" x="168" y="552" width="24.72" height="24.72"/><rect class="cls-1" x="216" y="552" width="24.72" height="24.72"/><rect class="cls-1" x="264" y="552" width="24.72" height="24.72"/><rect class="cls-1" x="336" y="552" width="24.72" height="24.72"/><rect class="cls-1" x="360" y="552" width="24.72" height="24.72"/><rect class="cls-1" x="384" y="552" width="24.72" height="24.72"/><rect class="cls-1" x="432" y="552" width="24.72" height="24.72"/><rect class="cls-1" x="504" y="552" width="24.72" height="24.72"/><rect class="cls-1" x="552" y="552" width="24.72" height="24.72"/><rect class="cls-1" x="576" y="552" width="24.72" height="24.72"/><rect class="cls-1" x="600" y="552" width="24.72" height="24.72"/><rect class="cls-1" x="624" y="552" width="24.72" height="24.72"/><rect class="cls-1" x="648" y="552" width="24.72" height="24.72"/><rect class="cls-1" x="672" y="552" width="24.72" height="24.72"/><rect class="cls-1" x="744" y="552" width="24.72" height="24.72"/><rect class="cls-1" x="792" y="552" width="24.72" height="24.72"/><rect class="cls-1" x="888" y="552" width="24.72" height="24.72"/><rect class="cls-1" x="48" y="576" width="24.72" height="24.72"/><rect class="cls-1" x="120" y="576" width="24.72" height="24.72"/><rect class="cls-1" x="144" y="576" width="24.72" height="24.72"/><rect class="cls-1" x="192" y="576" width="24.72" height="24.72"/><rect class="cls-1" x="240" y="576" width="24.72" height="24.72"/><rect class="cls-1" x="264" y="576" width="24.72" height="24.72"/><rect class="cls-1" x="288" y="576" width="24.72" height="24.72"/><rect class="cls-1" x="408" y="576" width="24.72" height="24.72"/><rect class="cls-1" x="456" y="576" width="24.72" height="24.72"/><rect class="cls-1" x="480" y="576" width="24.72" height="24.72"/><rect class="cls-1" x="504" y="576" width="24.72" height="24.72"/><rect class="cls-1" x="528" y="576" width="24.72" height="24.72"/><rect class="cls-1" x="552" y="576" width="24.72" height="24.72"/><rect class="cls-1" x="600" y="576" width="24.72" height="24.72"/><rect class="cls-1" x="624" y="576" width="24.72" height="24.72"/><rect class="cls-1" x="648" y="576" width="24.72" height="24.72"/><rect class="cls-1" x="672" y="576" width="24.72" height="24.72"/><rect class="cls-1" x="696" y="576" width="24.72" height="24.72"/><rect class="cls-1" x="744" y="576" width="24.72" height="24.72"/><rect class="cls-1" x="840" y="576" width="24.72" height="24.72"/><rect class="cls-1" x="864" y="576" width="24.72" height="24.72"/><rect class="cls-1" x="888" y="576" width="24.72" height="24.72"/><rect class="cls-1" x="912" y="576" width="24.72" height="24.72"/><rect class="cls-1" x="48" y="600" width="24.72" height="24.72"/><rect class="cls-1" x="120" y="600" width="24.72" height="24.72"/><rect class="cls-1" x="384" y="600" width="24.72" height="24.72"/><rect class="cls-1" x="408" y="600" width="24.72" height="24.72"/><rect class="cls-1" x="432" y="600" width="24.72" height="24.72"/><rect class="cls-1" x="504" y="600" width="24.72" height="24.72"/><rect class="cls-1" x="624" y="600" width="24.72" height="24.72"/><rect class="cls-1" x="648" y="600" width="24.72" height="24.72"/><rect class="cls-1" x="792" y="600" width="24.72" height="24.72"/><rect class="cls-1" x="96" y="624" width="24.72" height="24.72"/><rect class="cls-1" x="120" y="624" width="24.72" height="24.72"/><rect class="cls-1" x="144" y="624" width="24.72" height="24.72"/><rect class="cls-1" x="168" y="624" width="24.72" height="24.72"/><rect class="cls-1" x="192" y="624" width="24.72" height="24.72"/><rect class="cls-1" x="216" y="624" width="24.72" height="24.72"/><rect class="cls-1" x="288" y="624" width="24.72" height="24.72"/><rect class="cls-1" x="312" y="624" width="24.72" height="24.72"/><rect class="cls-1" x="336" y="624" width="24.72" height="24.72"/><rect class="cls-1" x="360" y="624" width="24.72" height="24.72"/><rect class="cls-1" x="432" y="624" width="24.72" height="24.72"/><rect class="cls-1" x="480" y="624" width="24.72" height="24.72"/><rect class="cls-1" x="504" y="624" width="24.72" height="24.72"/><rect class="cls-1" x="552" y="624" width="24.72" height="24.72"/><rect class="cls-1" x="576" y="624" width="24.72" height="24.72"/><rect class="cls-1" x="624" y="624" width="24.72" height="24.72"/><rect class="cls-1" x="672" y="624" width="24.72" height="24.72"/><rect class="cls-1" x="720" y="624" width="24.72" height="24.72"/><rect class="cls-1" x="744" y="624" width="24.72" height="24.72"/><rect class="cls-1" x="864" y="624" width="24.72" height="24.72"/><rect class="cls-1" x="888" y="624" width="24.72" height="24.72"/><rect class="cls-1" x="912" y="624" width="24.72" height="24.72"/><rect class="cls-1" x="48" y="648" width="24.72" height="24.72"/><rect class="cls-1" x="120" y="648" width="24.72" height="24.72"/><rect class="cls-1" x="168" y="648" width="24.72" height="24.72"/><rect class="cls-1" x="240" y="648" width="24.72" height="24.72"/><rect class="cls-1" x="264" y="648" width="24.72" height="24.72"/><rect class="cls-1" x="288" y="648" width="24.72" height="24.72"/><rect class="cls-1" x="336" y="648" width="24.72" height="24.72"/><rect class="cls-1" x="408" y="648" width="24.72" height="24.72"/><rect class="cls-1" x="552" y="648" width="24.72" height="24.72"/><rect class="cls-1" x="696" y="648" width="24.72" height="24.72"/><rect class="cls-1" x="768" y="648" width="24.72" height="24.72"/><rect class="cls-1" x="792" y="648" width="24.72" height="24.72"/><rect class="cls-1" x="816" y="648" width="24.72" height="24.72"/><rect class="cls-1" x="864" y="648" width="24.72" height="24.72"/><rect class="cls-1" x="48" y="672" width="24.72" height="24.72"/><rect class="cls-1" x="96" y="672" width="24.72" height="24.72"/><rect class="cls-1" x="192" y="672" width="24.72" height="24.72"/><rect class="cls-1" x="216" y="672" width="24.72" height="24.72"/><rect class="cls-1" x="288" y="672" width="24.72" height="24.72"/><rect class="cls-1" x="432" y="672" width="24.72" height="24.72"/><rect class="cls-1" x="456" y="672" width="24.72" height="24.72"/><rect class="cls-1" x="504" y="672" width="24.72" height="24.72"/><rect class="cls-1" x="576" y="672" width="24.72" height="24.72"/><rect class="cls-1" x="600" y="672" width="24.72" height="24.72"/><rect class="cls-1" x="624" y="672" width="24.72" height="24.72"/><rect class="cls-1" x="648" y="672" width="24.72" height="24.72"/><rect class="cls-1" x="672" y="672" width="24.72" height="24.72"/><rect class="cls-1" x="696" y="672" width="24.72" height="24.72"/><rect class="cls-1" x="720" y="672" width="24.72" height="24.72"/><rect class="cls-1" x="768" y="672" width="24.72" height="24.72"/><rect class="cls-1" x="816" y="672" width="24.72" height="24.72"/><rect class="cls-1" x="864" y="672" width="24.72" height="24.72"/><rect class="cls-1" x="912" y="672" width="24.72" height="24.72"/><rect class="cls-1" x="48" y="696" width="24.72" height="24.72"/><rect class="cls-1" x="96" y="696" width="24.72" height="24.72"/><rect class="cls-1" x="168" y="696" width="24.72" height="24.72"/><rect class="cls-1" x="216" y="696" width="24.72" height="24.72"/><rect class="cls-1" x="240" y="696" width="24.72" height="24.72"/><rect class="cls-1" x="288" y="696" width="24.72" height="24.72"/><rect class="cls-1" x="336" y="696" width="24.72" height="24.72"/><rect class="cls-1" x="360" y="696" width="24.72" height="24.72"/><rect class="cls-1" x="384" y="696" width="24.72" height="24.72"/><rect class="cls-1" x="408" y="696" width="24.72" height="24.72"/><rect class="cls-1" x="432" y="696" width="24.72" height="24.72"/><rect class="cls-1" x="600" y="696" width="24.72" height="24.72"/><rect class="cls-1" x="672" y="696" width="24.72" height="24.72"/><rect class="cls-1" x="696" y="696" width="24.72" height="24.72"/><rect class="cls-1" x="744" y="696" width="24.72" height="24.72"/><rect class="cls-1" x="792" y="696" width="24.72" height="24.72"/><rect class="cls-1" x="816" y="696" width="24.72" height="24.72"/><rect class="cls-1" x="840" y="696" width="24.72" height="24.72"/><rect class="cls-1" x="888" y="696" width="24.72" height="24.72"/><rect class="cls-1" x="48" y="720" width="24.72" height="24.72"/><rect class="cls-1" x="96" y="720" width="24.72" height="24.72"/><rect class="cls-1" x="120" y="720" width="24.72" height="24.72"/><rect class="cls-1" x="192" y="720" width="24.72" height="24.72"/><rect class="cls-1" x="216" y="720" width="24.72" height="24.72"/><rect class="cls-1" x="264" y="720" width="24.72" height="24.72"/><rect class="cls-1" x="312" y="720" width="24.72" height="24.72"/><rect class="cls-1" x="336" y="720" width="24.72" height="24.72"/><rect class="cls-1" x="360" y="720" width="24.72" height="24.72"/><rect class="cls-1" x="408" y="720" width="24.72" height="24.72"/><rect class="cls-1" x="432" y="720" width="24.72" height="24.72"/><rect class="cls-1" x="504" y="720" width="24.72" height="24.72"/><rect class="cls-1" x="600" y="720" width="24.72" height="24.72"/><rect class="cls-1" x="624" y="720" width="24.72" height="24.72"/><rect class="cls-1" x="648" y="720" width="24.72" height="24.72"/><rect class="cls-1" x="672" y="720" width="24.72" height="24.72"/><rect class="cls-1" x="696" y="720" width="24.72" height="24.72"/><rect class="cls-1" x="720" y="720" width="24.72" height="24.72"/><rect class="cls-1" x="744" y="720" width="24.72" height="24.72"/><rect class="cls-1" x="768" y="720" width="24.72" height="24.72"/><rect class="cls-1" x="792" y="720" width="24.72" height="24.72"/><rect class="cls-1" x="816" y="720" width="24.72" height="24.72"/><rect class="cls-1" x="840" y="720" width="24.72" height="24.72"/><rect class="cls-1" x="912" y="720" width="24.72" height="24.72"/><rect class="cls-1" x="240" y="744" width="24.72" height="24.72"/><rect class="cls-1" x="288" y="744" width="24.72" height="24.72"/><rect class="cls-1" x="312" y="744" width="24.72" height="24.72"/><rect class="cls-1" x="360" y="744" width="24.72" height="24.72"/><rect class="cls-1" x="456" y="744" width="24.72" height="24.72"/><rect class="cls-1" x="552" y="744" width="24.72" height="24.72"/><rect class="cls-1" x="576" y="744" width="24.72" height="24.72"/><rect class="cls-1" x="600" y="744" width="24.72" height="24.72"/><rect class="cls-1" x="648" y="744" width="24.72" height="24.72"/><rect class="cls-1" x="672" y="744" width="24.72" height="24.72"/><rect class="cls-1" x="720" y="744" width="24.72" height="24.72"/><rect class="cls-1" x="816" y="744" width="24.72" height="24.72"/><rect class="cls-1" x="288" y="768" width="24.72" height="24.72"/><rect class="cls-1" x="312" y="768" width="24.72" height="24.72"/><rect class="cls-1" x="384" y="768" width="24.72" height="24.72"/><rect class="cls-1" x="504" y="768" width="24.72" height="24.72"/><rect class="cls-1" x="552" y="768" width="24.72" height="24.72"/><rect class="cls-1" x="576" y="768" width="24.72" height="24.72"/><rect class="cls-1" x="624" y="768" width="24.72" height="24.72"/><rect class="cls-1" x="648" y="768" width="24.72" height="24.72"/><rect class="cls-1" x="672" y="768" width="24.72" height="24.72"/><rect class="cls-1" x="720" y="768" width="24.72" height="24.72"/><rect class="cls-1" x="768" y="768" width="24.72" height="24.72"/><rect class="cls-1" x="816" y="768" width="24.72" height="24.72"/><rect class="cls-1" x="840" y="768" width="24.72" height="24.72"/><rect class="cls-1" x="888" y="768" width="24.72" height="24.72"/><rect class="cls-1" x="912" y="768" width="24.72" height="24.72"/><rect class="cls-1" x="336" y="792" width="24.72" height="24.72"/><rect class="cls-1" x="384" y="792" width="24.72" height="24.72"/><rect class="cls-1" x="432" y="792" width="24.72" height="24.72"/><rect class="cls-1" x="480" y="792" width="24.72" height="24.72"/><rect class="cls-1" x="504" y="792" width="24.72" height="24.72"/><rect class="cls-1" x="528" y="792" width="24.72" height="24.72"/><rect class="cls-1" x="552" y="792" width="24.72" height="24.72"/><rect class="cls-1" x="576" y="792" width="24.72" height="24.72"/><rect class="cls-1" x="600" y="792" width="24.72" height="24.72"/><rect class="cls-1" x="720" y="792" width="24.72" height="24.72"/><rect class="cls-1" x="816" y="792" width="24.72" height="24.72"/><rect class="cls-1" x="888" y="792" width="24.72" height="24.72"/><rect class="cls-1" x="240" y="816" width="24.72" height="24.72"/><rect class="cls-1" x="264" y="816" width="24.72" height="24.72"/><rect class="cls-1" x="336" y="816" width="24.72" height="24.72"/><rect class="cls-1" x="360" y="816" width="24.72" height="24.72"/><rect class="cls-1" x="384" y="816" width="24.72" height="24.72"/><rect class="cls-1" x="408" y="816" width="24.72" height="24.72"/><rect class="cls-1" x="456" y="816" width="24.72" height="24.72"/><rect class="cls-1" x="528" y="816" width="24.72" height="24.72"/><rect class="cls-1" x="576" y="816" width="24.72" height="24.72"/><rect class="cls-1" x="600" y="816" width="24.72" height="24.72"/><rect class="cls-1" x="648" y="816" width="24.72" height="24.72"/><rect class="cls-1" x="672" y="816" width="24.72" height="24.72"/><rect class="cls-1" x="696" y="816" width="24.72" height="24.72"/><rect class="cls-1" x="720" y="816" width="24.72" height="24.72"/><rect class="cls-1" x="744" y="816" width="24.72" height="24.72"/><rect class="cls-1" x="768" y="816" width="24.72" height="24.72"/><rect class="cls-1" x="792" y="816" width="24.72" height="24.72"/><rect class="cls-1" x="816" y="816" width="24.72" height="24.72"/><rect class="cls-1" x="864" y="816" width="24.72" height="24.72"/><rect class="cls-1" x="912" y="816" width="24.72" height="24.72"/><rect class="cls-1" x="240" y="840" width="24.72" height="24.72"/><rect class="cls-1" x="336" y="840" width="24.72" height="24.72"/><rect class="cls-1" x="360" y="840" width="24.72" height="24.72"/><rect class="cls-1" x="408" y="840" width="24.72" height="24.72"/><rect class="cls-1" x="432" y="840" width="24.72" height="24.72"/><rect class="cls-1" x="504" y="840" width="24.72" height="24.72"/><rect class="cls-1" x="528" y="840" width="24.72" height="24.72"/><rect class="cls-1" x="552" y="840" width="24.72" height="24.72"/><rect class="cls-1" x="576" y="840" width="24.72" height="24.72"/><rect class="cls-1" x="624" y="840" width="24.72" height="24.72"/><rect class="cls-1" x="648" y="840" width="24.72" height="24.72"/><rect class="cls-1" x="672" y="840" width="24.72" height="24.72"/><rect class="cls-1" x="720" y="840" width="24.72" height="24.72"/><rect class="cls-1" x="768" y="840" width="24.72" height="24.72"/><rect class="cls-1" x="816" y="840" width="24.72" height="24.72"/><rect class="cls-1" x="864" y="840" width="24.72" height="24.72"/><rect class="cls-1" x="240" y="864" width="24.72" height="24.72"/><rect class="cls-1" x="264" y="864" width="24.72" height="24.72"/><rect class="cls-1" x="288" y="864" width="24.72" height="24.72"/><rect class="cls-1" x="312" y="864" width="24.72" height="24.72"/><rect class="cls-1" x="336" y="864" width="24.72" height="24.72"/><rect class="cls-1" x="384" y="864" width="24.72" height="24.72"/><rect class="cls-1" x="696" y="864" width="24.72" height="24.72"/><rect class="cls-1" x="744" y="864" width="24.72" height="24.72"/><rect class="cls-1" x="792" y="864" width="24.72" height="24.72"/><rect class="cls-1" x="840" y="864" width="24.72" height="24.72"/><rect class="cls-1" x="864" y="864" width="24.72" height="24.72"/><rect class="cls-1" x="912" y="864" width="24.72" height="24.72"/><rect class="cls-1" x="312" y="888" width="24.72" height="24.72"/><rect class="cls-1" x="336" y="888" width="24.72" height="24.72"/><rect class="cls-1" x="456" y="888" width="24.72" height="24.72"/><rect class="cls-1" x="528" y="888" width="24.72" height="24.72"/><rect class="cls-1" x="552" y="888" width="24.72" height="24.72"/><rect class="cls-1" x="576" y="888" width="24.72" height="24.72"/><rect class="cls-1" x="624" y="888" width="24.72" height="24.72"/><rect class="cls-1" x="672" y="888" width="24.72" height="24.72"/><rect class="cls-1" x="696" y="888" width="24.72" height="24.72"/><rect class="cls-1" x="720" y="888" width="24.72" height="24.72"/><rect class="cls-1" x="768" y="888" width="24.72" height="24.72"/><rect class="cls-1" x="792" y="888" width="24.72" height="24.72"/><rect class="cls-1" x="912" y="888" width="24.72" height="24.72"/><rect class="cls-1" x="288" y="912" width="24.72" height="24.72"/><rect class="cls-1" x="312" y="912" width="24.72" height="24.72"/><rect class="cls-1" x="456" y="912" width="24.72" height="24.72"/><rect class="cls-1" x="480" y="912" width="24.72" height="24.72"/><rect class="cls-1" x="552" y="912" width="24.72" height="24.72"/><rect class="cls-1" x="624" y="912" width="24.72" height="24.72"/><rect class="cls-1" x="648" y="912" width="24.72" height="24.72"/><rect class="cls-1" x="792" y="912" width="24.72" height="24.72"/><rect class="cls-1" x="840" y="912" width="24.72" height="24.72"/><rect class="cls-1" x="864" y="912" width="24.72" height="24.72"/><rect class="cls-1" x="888" y="912" width="24.72" height="24.72"/><rect class="cls-1" x="912" y="912" width="24.72" height="24.72"/></g></mask></defs><title>qrCodeBlanc</title><g id="blanc"><g class="cls-2"><rect class="cls-1" width="984" height="984"/></g><path class="cls-1" d="M48,48V216H216V48ZM192,192H72V72H192Z"/><rect class="cls-1" x="96" y="96" width="72" height="72"/><path class="cls-1" d="M768,48V216H936V48ZM912,192H792V72H912Z"/><rect class="cls-1" x="816" y="96" width="72" height="72"/><path class="cls-1" d="M48,768V936H216V768ZM192,912H72V792H192Z"/><rect class="cls-1" x="96" y="816" width="72" height="72"/></g></svg>