<svg width="211" height="662" viewBox="0 0 211 662" fill="none" xmlns="http://www.w3.org/2000/svg">
<rect x="0.5" y="36.5" width="210" height="625" stroke="white"/>
<path d="M162.041 177.118L183 149.914V31.6387L162.041 38.6367L153.065 41.5935L57.9346 73.2816V391L183 349.357V203.04L162.041 213.685L153.065 218.219H152.67H153.065L162.041 218.909L172.594 219.746L162.041 228.716L153.065 236.551L75.7869 302.047L147.443 223.689L128.555 220.535L153.213 188.748L162.041 177.118ZM120.418 134.982L124.708 137.348L98.8175 184.707L94.4777 182.342L120.418 134.982ZM101.53 205.504L97.0421 203.139L152.128 102.653L153.065 103.146L156.468 105.019L153.065 111.228L101.53 205.504ZM140.391 160.214L136.051 157.701L148.972 133.996L153.065 136.214H153.312L153.065 136.658L140.391 160.214Z" fill="#EB6316"/>
<path d="M153.065 218.219L162.041 218.909V213.685L153.065 218.219ZM28 44.5998V371.829L57.9348 361.973L162.041 327.476V228.962L153.065 236.552V320.725L57.9348 352.413L36.9755 359.411V51.105L153.065 12.419V103.146L156.468 105.019L153.065 111.229V136.362H153.312L153.065 136.806V188.748L162.041 177.118V0L28 44.5998Z" fill="#EB6316"/>
</svg>
