<svg width="181" height="106" viewBox="0 0 181 106" fill="none" xmlns="http://www.w3.org/2000/svg">

<style>
    path{
        fill: #EB6316; opacity: 0;
        animation: 5.5s opacity infinite;
    }
    .color2{
        fill: #F0821B; opacity: 0;
        animation: 5.5s opacity infinite;
    }
    @keyframes opacity {
        15% {opacity: 0} 
        35% {opacity: 1}
        65% {opacity: 1} 
        85% {opacity: 0}
    }
    #hg2 {animation-delay: 0.5s}
    #hg3 {animation-delay: 1s}
    #hg4 {animation-delay: 1.5s}
    #hg5 {animation-delay: 2s}
    #EB6316
</style>



<path id='hg2' d="M119.212 50.137V56.323L129.668 57.3239L138.699 54.6457L160.638 85.0976V86.1527L174.519 83.9524L174.87 82.6629L166.533 72.338L180.125 69.3442V65.8093L142.44 24.0496L120.627 29.3428L112.758 35.4386L99.9141 24.3201V28.8198L119.212 56.323V50.137Z" fill="#EB6316"/>
<!-- 2eme couleur -->
<path id='hg5' class='color2' d="M151.318 101.473L149.218 102.294L145.711 101.356L143.62 99.3723L142.097 97.7401L136.256 97.8573L131.353 98.3172L128.315 100.77L127.153 104.395H119.446V103.34L117.337 101.14H115.02L111.902 96.4687L88.043 63.6001L83.7435 62.6984L80.4536 57.4863H78.7591L69.8087 44.3388L73.4321 42.9772L72.4135 40.822H64.9414L48.5098 17.4669L61.8497 11.4522L70.1061 14.8789L74.1441 10.2529L82.8962 14.2206L151.318 101.473Z" fill="#F0821B"/>
<path id='hg3' d="M61.8497 11.4521L78.5878 34.7352L64.9414 40.8219L48.5098 17.4668L61.8497 11.4521Z" fill="#EB6316"/>
<path id='hg4' d="M70.1074 14.8789L82.1224 32.1833L85.3492 30.9029H89.18L74.1455 10.2529L70.1074 14.8789Z" fill="#EB6316"/>
<path id='hg2' d="M73.432 42.9771L87.6643 37.5486L132.02 93.4928L117.346 101.14H115.02L88.0429 63.6L83.7435 62.6982L80.4535 57.4861H78.759L69.8086 44.3387L73.432 42.9771Z" fill="#EB6316"/>
<path id='hg3' d="M151.319 101.473L149.219 102.294L145.712 101.356L143.621 99.3723L142.098 97.7401L136.257 97.8574L131.354 98.3172L128.316 100.77L127.154 104.395H119.447V103.34L117.338 101.14L132.021 93.4929L143.089 97.0187L151.319 101.473Z" fill="#EB6316"/>
<path id='hg4' d="M69.8086 98.9395V103.078L80.3634 102.231L82.3193 106L106.683 103.971V97.2983L102.446 92.0682L93.2797 93.4929L87.5201 90.968H83.7705L76.1451 90.418L69.8086 98.9395Z" fill="#EB6316"/>
<!-- 2eme couleur -->
<path id='hg5' class='color2' d="M93.2807 93.4928L87.521 92.573L83.465 95.0618L76.146 91.6352L69.8095 98.9393L53.3599 74.6013H46.0409L32.9353 55.5294L36.4416 53.4013L0 7.17788L7.76062 0L18.3515 7.48447L23.3359 4.36444L29.7265 9.50438L38.4516 21.218H42.6519L93.2807 93.4928Z" fill="#F0821B"/>
<path id='hg2' d="M76.146 91.6352L69.8095 98.9393L53.3599 74.6013H46.0409L32.9353 55.5294L36.4416 53.4013L0 7.17788L7.76062 0L76.146 91.6352Z" fill="#EB6316"/>
<path id='hg3' d="M23.336 4.3645L87.5211 92.5731L83.465 95.0619L18.3516 7.48454L23.336 4.3645Z" fill="#EB6316"/>
<!-- 2eme couleur -->
<path id='hg5' class='color2' d="M99.9141 24.32L104.394 20.731L109.604 22.3542L115.967 15.1763L124.881 20.6138L132.516 16.7994L142.232 22.7058L180.999 66.8101L174.519 65.3042L166.19 70.1646L174.87 82.6628L166.533 79.0739L160.638 85.0975L134.328 50.1369L124.187 45.7364L119.212 50.1369L99.9141 24.32Z" fill="#F0821B"/>
<path id='hg4' d="M104.394 20.7312L124.187 45.7366L119.212 50.1371L99.9141 24.3201L104.394 20.7312Z" fill="#EB6316"/>
<path id='hg2' d="M109.604 22.3542L134.328 50.1369L160.638 85.0975L166.533 79.0739L115.967 15.1763L109.604 22.3542Z" fill="#EB6316"/>
<path id='hg3' d="M124.883 20.6139L132.517 16.7996L174.52 65.3044L166.192 70.1648L124.883 20.6139Z" fill="#EB6316"/>
</svg>
