<svg width="157" height="144" viewBox="0 0 157 144" fill="none" xmlns="http://www.w3.org/2000/svg">
<path d="M112.234 33.1926L113.742 32.8254V68.3705L111.452 65.1918L110.592 65.443L101.771 68.0613L90.5634 66.9889L69.8779 37.521V32.6998L83.6457 44.6126L85.8196 42.9218L89.0272 40.4388L92.0803 38.0813L97.9739 36.6514L102.36 35.5886L112.234 33.1926Z" fill="#EB6316"/>
<path d="M113.742 101.046V111.393L108.834 111.49L103.578 111.983L100.322 114.611L99.0758 118.495H90.8151V117.364L88.5543 115.007H86.0713L82.7284 110.002L57.1541 74.7856L52.5455 73.8194L49.019 68.235H47.2027L37.6087 54.1484L41.4927 52.6895L40.4009 50.3804H32.3914L14.7783 25.3568L29.0775 18.9126L37.9275 22.584L42.2559 17.6276L51.6373 21.8787L113.742 101.046Z" fill="#F0821B"/>
<path d="M29.0775 18.9127L47.0191 43.859L32.3914 50.3806L14.7783 25.357L29.0775 18.9127Z" fill="#EB6316"/>
<path d="M37.9268 22.584L50.8057 41.1246L54.2645 39.7526H58.3707L42.2552 17.6276L37.9268 22.584Z" fill="#EB6316"/>
<path d="M41.4914 52.6896L56.7471 46.8733L104.292 106.814L88.5627 115.007H86.07L57.1528 74.7953L52.5443 73.8195L49.0178 68.2351H47.2014L37.6074 54.1485L41.4914 52.6896Z" fill="#EB6316"/>
<path d="M62.7666 106.814L56.5929 105.828L52.2451 108.495L44.3999 104.823L37.6078 112.649L19.9754 86.5727H12.1302L1 70.3799V64.3704L1.84056 63.8583L1 62.7955V25.3568L3.9951 29.376H8.4974L62.7666 106.814Z" fill="#F0821B"/>
<path d="M44.3999 104.824L37.6078 112.65L19.9754 86.5729H12.1302L1 70.3801V64.3705L1.84056 63.8585L1 62.7957V46.6898L43.9168 104.176L44.3999 104.824Z" fill="#EB6316"/>
<path d="M56.5929 105.828L52.2451 108.495L48.7766 103.838L1 39.5982V29.4631L55.3369 104.109L56.5929 105.828Z" fill="#EB6316"/>
<path d="M104.824 24.642L113.742 30.0622V69.6265L110.592 65.443L106.766 60.361L95.8966 55.6461L90.5634 60.361L69.8779 32.6998L74.6797 28.8545L80.2642 30.5936L87.0852 22.903L96.6406 28.7289L104.824 24.642Z" fill="#F0821B"/>
<path d="M156.794 78.2251L155.856 78.0029V77.1624L156.794 78.2251Z" fill="#F0821B"/>
<path d="M74.6797 28.8544L95.8966 55.646L90.5634 60.3609L69.8779 32.6997L74.6797 28.8544Z" fill="#EB6316"/>
<path d="M113.741 56.5736V69.6265L110.591 65.443L106.765 60.361L89.0267 40.4388L80.2637 30.5936L87.0848 22.903L97.9734 36.6514L113.741 56.5736Z" fill="#EB6316"/>
<path d="M113.742 34.9316V49.2307L102.36 35.5886L96.6406 28.7288L104.824 24.642L112.234 33.1925L113.742 34.9316Z" fill="#EB6316"/>
<path d="M113.741 1H1V142.204H113.741V1Z" stroke="white" stroke-width="2" stroke-miterlimit="10"/>
</svg>
