<svg id="Calque_1" data-name="Calque 1" xmlns="http://www.w3.org/2000/svg" xmlns:xlink="http://www.w3.org/1999/xlink" viewBox="0 0 198.43 198.43"><defs><style>.cls-1{fill:none;}.cls-2{fill:#7d8285;}.cls-3{fill:#fff;}.cls-4{clip-path:url(#clip-path);}.cls-5{clip-path:url(#clip-path-2);}.cls-6{font-size:10.1px;font-family:Gotham-Medium, Gotham;letter-spacing:0em;}.cls-7{letter-spacing:0.01em;}.cls-8{letter-spacing:-0.01em;}.cls-9{letter-spacing:-0.02em;}.cls-10{letter-spacing:-0.01em;}.cls-11{letter-spacing:-0.09em;}.cls-12{letter-spacing:-0.03em;}</style><clipPath id="clip-path"><path class="cls-1" d="M58.62,75.29v0H40.16v0A58.2,58.2,0,0,0,57.22,116.5l13.08-13A39.78,39.78,0,0,1,58.62,75.29Z"/></clipPath><clipPath id="clip-path-2"><path class="cls-1" d="M138.48,75.23v0h18.46v0A58.24,58.24,0,0,0,139.88,34L126.8,47A39.82,39.82,0,0,1,138.48,75.23Z"/></clipPath></defs><title>Plan de travail 1</title><path class="cls-2" d="M98.55,62.5a12.81,12.81,0,0,1,12.79,12.76H129.8a31.25,31.25,0,0,0-62.5,0H85.76A12.81,12.81,0,0,1,98.55,62.5Z"/><path d="M84.72,37.84,94,17.1A58.5,58.5,0,0,0,41.7,62L68,49.61A40.09,40.09,0,0,1,84.72,37.84Z"/><path class="cls-2" d="M68,49.61,41.7,62a58.15,58.15,0,0,0-1.54,13.28H58.62A39.78,39.78,0,0,1,68,49.61Z"/><path d="M98.55,62.5A12.81,12.81,0,0,0,85.76,75.26h25.58A12.81,12.81,0,0,0,98.55,62.5Z"/><path class="cls-3" d="M58.62,75.29v0H40.16v0A58.2,58.2,0,0,0,57.22,116.5l13.08-13A39.78,39.78,0,0,1,58.62,75.29Z"/><path class="cls-2" d="M98.55,133.68a58.19,58.19,0,0,0,41.36-17.22l-13.08-13a39.86,39.86,0,0,1-56.53,0l-13.08,13A58.21,58.21,0,0,0,98.55,133.68Z"/><path d="M89.32,84.12a4.12,4.12,0,0,1-.28-.31,6.69,6.69,0,0,1-.5-.58c-.08-.09-.14-.19-.21-.28s-.34-.45-.49-.69l-.12-.19a12.75,12.75,0,0,1-1.87-5.27h0a15.11,15.11,0,0,1-.09-1.51v0H67.3v0c0,.95,0,1.89.13,2.82,0,.08,0,.17,0,.25,0,.39.09.78.14,1.17,0,.12,0,.25,0,.37,0,.36.12.73.19,1.09,0,.14,0,.28.07.42.07.35.15.69.23,1,0,.15.07.31.11.46.08.33.17.65.27,1,0,.16.08.32.13.48.1.32.2.63.31.94.06.16.11.33.17.5s.22.59.34.89.13.34.2.51.24.57.37.85.15.35.24.52.26.55.4.82l.26.51c.14.27.29.53.44.79s.19.34.3.51.3.5.45.75l.33.51.49.71.36.51.51.68.39.5.54.64.42.49c.18.21.37.41.56.61l.45.48.32.32L89.55,84.35Z"/><path class="cls-2" d="M77.23,98.11c.19.19.39.37.59.54l.52.45.6.51.55.43.62.47.58.41.63.43.61.39.65.4.63.37.66.36.66.34.67.33.69.32.68.29.72.29.68.26.74.25.69.22.77.23c.23.06.46.13.69.18l.81.19c.22,0,.45.11.68.15l.84.16.68.11.9.12.63.08,1,.07a4.9,4.9,0,0,0,.54,0c.5,0,1,0,1.52,0h.06c.65,0,1.28,0,1.91-.06l.52,0c.49,0,1-.09,1.46-.15l.48-.06a30.8,30.8,0,0,0,3.73-.76l.47-.13,1.34-.41.57-.2c.48-.17,1-.35,1.42-.55.29-.11.57-.24.85-.37l1-.44.89-.46.63-.35c.23-.13.47-.24.69-.38h0a31.71,31.71,0,0,0,6.15-4.78l-13-13a12.65,12.65,0,0,1-2.94,2.19h0a12.9,12.9,0,0,1-2.19.94l-.18,0A13,13,0,0,1,100,88l-.28,0a11.12,11.12,0,0,1-1.16.06h0c-.42,0-.84,0-1.25-.06L96.87,88c-.27,0-.54-.07-.81-.12l-.49-.12-.69-.18-.52-.18-.61-.22-.53-.23-.55-.27c-.18-.09-.35-.19-.53-.3l-.49-.29-.52-.36c-.14-.1-.29-.21-.42-.32s-.35-.28-.52-.42l-.36-.33-.28-.27L76.49,97.4c.09.08.17.17.25.25Z"/><g class="cls-4"><path d="M54.58,117h0a2.2,2.2,0,0,1,.08-3.13h0a2.2,2.2,0,0,1,3.13.08h0A2.2,2.2,0,0,1,57.7,117h0a2.21,2.21,0,0,1-1.52.61h0A2.25,2.25,0,0,1,54.58,117Zm-4.91-5.88a2.22,2.22,0,0,1,.47-3.1h0a2.22,2.22,0,0,1,3.1.48h0a2.22,2.22,0,0,1-.48,3.1h0a2.18,2.18,0,0,1-1.3.43h0A2.21,2.21,0,0,1,49.67,111.08Zm-4.14-6.45a2.22,2.22,0,0,1,.86-3h0a2.21,2.21,0,0,1,3,.86h0a2.23,2.23,0,0,1-.85,3h0a2.38,2.38,0,0,1-1.08.28h0A2.23,2.23,0,0,1,45.53,104.63Zm-3.29-6.92h0a2.23,2.23,0,0,1,1.23-2.88h0a2.22,2.22,0,0,1,2.88,1.24h0A2.21,2.21,0,0,1,45.12,99h0a2.14,2.14,0,0,1-.82.16h0A2.22,2.22,0,0,1,42.24,97.71Zm-2.38-7.28a2.2,2.2,0,0,1,1.59-2.69h0a2.21,2.21,0,0,1,2.7,1.58h0A2.23,2.23,0,0,1,42.56,92h0a2.74,2.74,0,0,1-.56.06h0A2.2,2.2,0,0,1,39.86,90.43Zm-1.44-7.52a2.21,2.21,0,0,1,1.92-2.48h0a2.22,2.22,0,0,1,2.48,1.92h0a2.24,2.24,0,0,1-1.92,2.48h-.28A2.21,2.21,0,0,1,38.42,82.91Zm1.7-5.43a2.23,2.23,0,0,1-2.18-2.26h0a2.21,2.21,0,0,1,2.26-2.17h0a2.2,2.2,0,0,1,2.17,2.25h0a2.22,2.22,0,0,1-2.21,2.18h0Z"/><path d="M61.58,114.37a2.2,2.2,0,0,1-2.21-2.21,2.09,2.09,0,0,1,0-.43,2.25,2.25,0,0,1,.13-.42,1.72,1.72,0,0,1,.2-.38,1.81,1.81,0,0,1,.28-.34,2.28,2.28,0,0,1,3.13,0,2.24,2.24,0,0,1,.27.34,2.32,2.32,0,0,1,.21.38,3.31,3.31,0,0,1,.12.42,2.1,2.1,0,0,1,0,.43,2.25,2.25,0,0,1-.65,1.57,2.88,2.88,0,0,1-.34.27,1.79,1.79,0,0,1-.39.2,1.4,1.4,0,0,1-.41.13A2.09,2.09,0,0,1,61.58,114.37Z"/><path d="M55.33,108.38h0a2.22,2.22,0,0,1,.4-3.11h0a2.21,2.21,0,0,1,3.11.41h0a2.21,2.21,0,0,1-.4,3.1h0a2.23,2.23,0,0,1-1.36.46h0A2.21,2.21,0,0,1,55.33,108.38Zm-3.95-5.92a2.21,2.21,0,0,1,.8-3h0a2.22,2.22,0,0,1,3,.82h0a2.21,2.21,0,0,1-.81,3h0a2.22,2.22,0,0,1-1.1.3h0A2.2,2.2,0,0,1,51.38,102.46Zm-3.16-6.37a2.23,2.23,0,0,1,1.2-2.9h0a2.21,2.21,0,0,1,2.89,1.2h0a2.2,2.2,0,0,1-1.19,2.89h0a2.3,2.3,0,0,1-.85.17h0A2.22,2.22,0,0,1,48.22,96.09Zm-2.29-6.74a2.21,2.21,0,0,1,1.58-2.71h0a2.21,2.21,0,0,1,2.71,1.56h0a2.22,2.22,0,0,1-1.57,2.71h0a2.25,2.25,0,0,1-.58.08h0A2.24,2.24,0,0,1,45.93,89.35Zm-1.38-7a2.22,2.22,0,0,1,1.91-2.48h0A2.21,2.21,0,0,1,49,81.8h0A2.22,2.22,0,0,1,47,84.28h-.29A2.22,2.22,0,0,1,44.55,82.37Z"/><path d="M46.31,77.48a2.22,2.22,0,0,1-2.22-2.22,2.23,2.23,0,0,1,1-1.84,1.79,1.79,0,0,1,.39-.2,1.51,1.51,0,0,1,.41-.13,2.22,2.22,0,0,1,2.65,2.17,2.22,2.22,0,0,1-2.22,2.22Z"/><path d="M65.94,110a2.3,2.3,0,0,1-1.57-.65,2.22,2.22,0,0,1,0-3.14,2.3,2.3,0,0,1,3.13,0,2.22,2.22,0,0,1,0,3.14A2.27,2.27,0,0,1,65.94,110Z"/><path d="M59.45,103.63h0a2.23,2.23,0,0,1,.49-3.1h0A2.22,2.22,0,0,1,63,101h0a2.21,2.21,0,0,1-.49,3.09h0a2.18,2.18,0,0,1-1.3.43h0A2.24,2.24,0,0,1,59.45,103.63Zm-4-6.46a2.22,2.22,0,0,1,1-3h0a2.23,2.23,0,0,1,3,1h0a2.22,2.22,0,0,1-1,3h0a2.29,2.29,0,0,1-1,.24h0A2.21,2.21,0,0,1,55.5,97.17Zm-2.9-7A2.21,2.21,0,0,1,54,87.39h0a2.21,2.21,0,0,1,2.79,1.42h0a2.22,2.22,0,0,1-1.42,2.79h0a2,2,0,0,1-.68.11h0A2.21,2.21,0,0,1,52.6,90.18Zm-1.76-7.36a2.22,2.22,0,0,1,1.84-2.54h0a2.23,2.23,0,0,1,2.54,1.85h0a2.23,2.23,0,0,1-1.85,2.53h0l-.35,0h0A2.21,2.21,0,0,1,50.84,82.82Z"/><path d="M52.47,77.48a2.22,2.22,0,0,1-2.22-2.22,2.22,2.22,0,0,1,2.65-2.17,1.51,1.51,0,0,1,.41.13,1.72,1.72,0,0,1,.38.2,1.54,1.54,0,0,1,.34.28,2.17,2.17,0,0,1,.65,1.56A2.21,2.21,0,0,1,54,76.83,2.25,2.25,0,0,1,52.47,77.48Z"/><path d="M70.3,105.69a2.22,2.22,0,0,1-1.57-.64,2.88,2.88,0,0,1-.27-.34,2.19,2.19,0,0,1-.34-.79,2.25,2.25,0,0,1,0-.44,2.18,2.18,0,0,1,0-.44,2.19,2.19,0,0,1,.34-.79,2.24,2.24,0,0,1,.27-.34,2.22,2.22,0,0,1,3.41.34,2.43,2.43,0,0,1,.33.79,2.18,2.18,0,0,1,0,.44,2.27,2.27,0,0,1-.65,1.57A2.22,2.22,0,0,1,70.3,105.69Z"/><path d="M64.44,100a2.21,2.21,0,0,1,.49-3.09h0a2.22,2.22,0,0,1,3.1.49h0a2.22,2.22,0,0,1-.5,3.09h0a2.17,2.17,0,0,1-1.3.42h0A2.22,2.22,0,0,1,64.44,100ZM61,94.39h0a2.21,2.21,0,0,1,1-3h0a2.21,2.21,0,0,1,3,1h0a2.21,2.21,0,0,1-1,3h0a2.3,2.3,0,0,1-1,.24h0A2.2,2.2,0,0,1,61,94.39Zm-2.53-6.1h0a2.2,2.2,0,0,1,1.42-2.79h0a2.22,2.22,0,0,1,2.79,1.42h0a2.22,2.22,0,0,1-1.42,2.79h0a2.37,2.37,0,0,1-.69.11h0A2.19,2.19,0,0,1,58.46,88.29Zm-1.55-6.43a2.23,2.23,0,0,1,1.85-2.54h0a2.23,2.23,0,0,1,2.53,1.85h0a2.2,2.2,0,0,1-1.84,2.53h0a1.38,1.38,0,0,1-.35,0h0A2.23,2.23,0,0,1,56.91,81.86Z"/><path d="M58.62,77.48a2.22,2.22,0,0,1-2.22-2.22,2.23,2.23,0,0,1,1-1.84,2,2,0,0,1,.38-.2,1.51,1.51,0,0,1,.41-.13,2.22,2.22,0,0,1,2,3.74A2.27,2.27,0,0,1,58.62,77.48Z"/></g><path class="cls-3" d="M138.48,75.23v0h18.46v0A58.24,58.24,0,0,0,139.88,34L126.8,47A39.82,39.82,0,0,1,138.48,75.23Z"/><g class="cls-5"><path d="M104-11.25l-2.94,1a33.26,33.26,0,0,0,.78,9.64,32.12,32.12,0,0,0-5.15-.74l1,2.93a29.75,29.75,0,0,1,8.59,2.23A30.13,30.13,0,0,1,104-11.25Z"/><path d="M126,38.09A30,30,0,0,1,111,40.37l1,2.94a33.28,33.28,0,0,0,9.64-.78,33.26,33.26,0,0,0,0,14.79,33.11,33.11,0,0,0-5.15-.74l1,2.93a29.77,29.77,0,0,1,8.58,2.23A30.16,30.16,0,0,1,126,38.09Z"/><path d="M118.15,46a36,36,0,0,1-5.19.2l1,2.87h1.17c0,.58,0,1.16,0,1.74h-.58l1,2.87q1.34,0,2.67.18A36.15,36.15,0,0,1,118.15,46Z"/><path d="M130.74,98.3l1,2.94a33.26,33.26,0,0,0,9.64-.78,32.12,32.12,0,0,0-.74,5.15l2.94-1A29.5,29.5,0,0,1,145.8,96,30,30,0,0,1,130.74,98.3Z"/><path d="M133.71,107h1.17c0,.19,0,.39,0,.58l2.87-1c0-.89.09-1.78.18-2.66a36,36,0,0,1-5.19.2Z"/><path d="M160.37,42A30.13,30.13,0,0,1,184,42,30.13,30.13,0,0,1,184,18.32a30.13,30.13,0,0,1-23.64.06A30.13,30.13,0,0,1,160.37,42Zm19.17-19.26a33.26,33.26,0,0,0,0,14.79,33.26,33.26,0,0,0-14.79,0,33.12,33.12,0,0,0,0-14.79A33.12,33.12,0,0,0,179.54,22.76Z"/><path d="M176.1,34.09a36.24,36.24,0,0,1,0-7.86,36.24,36.24,0,0,1-7.86,0,36.24,36.24,0,0,1,0,7.86A35.61,35.61,0,0,1,176.1,34.09Zm-4.82-4.79c.59,0,1.17,0,1.75,0,0,.59,0,1.17,0,1.75h-1.75C171.3,30.46,171.3,29.88,171.28,29.3Z"/><path d="M180.08,76.31a30.1,30.1,0,0,1,2.28,15.06l2.94-1a33.35,33.35,0,0,0-.78-9.65,33.12,33.12,0,0,0,14.79,0,32.12,32.12,0,0,0-.74,5.15l2.94-1a29.44,29.44,0,0,1,2.22-8.58A30.16,30.16,0,0,1,180.08,76.31Z"/><path d="M188.2,89.38l2.87-1c0-.39,0-.78,0-1.17h1.74v.58l2.87-1c0-.89.09-1.78.18-2.66a36.79,36.79,0,0,1-7.85,0A37.42,37.42,0,0,1,188.2,89.38Z"/><path d="M169.13-6a4.28,4.28,0,0,0,6-.17L192.8-24.86a24.26,24.26,0,0,1,22.87-7l-1.06-3.09a27.07,27.07,0,0,0-23.88,8.13,1.42,1.42,0,0,1-.06-2,27,27,0,0,0,7.07-14.41l-3.1,1.06a24,24,0,0,1-6,11.39,4.29,4.29,0,0,0,.17,6.05l-2,2.07a7.15,7.15,0,0,1-.28-10.08,21.14,21.14,0,0,0,4.87-8.33l-3.48,1.19a18.28,18.28,0,0,1-3.46,5.18,10,10,0,0,0,.39,14.11l-1.95,2.07a12.84,12.84,0,0,1-.51-18.14,15.18,15.18,0,0,0,1.49-1.84l-5.06,1.73a15.7,15.7,0,0,0,2.12,20.32l-2,2.07a18.56,18.56,0,0,1-4.19-21l-3.49,1.2A21.39,21.39,0,0,0,177-12.32l-2,2.08a24.27,24.27,0,0,1-7-22.87L165-32A27.1,27.1,0,0,0,173.1-8.17a1.42,1.42,0,0,1-2,.05A27.12,27.12,0,0,0,132.8-7a1.43,1.43,0,0,1-.06-2,27,27,0,0,0,7.07-14.41l-3.1,1.06a24,24,0,0,1-6,11.39A4.29,4.29,0,0,0,130.84-5l18.65,17.63a24.25,24.25,0,0,1,.95,34.25,4.3,4.3,0,0,0,.17,6.05l-2,2.07A7.14,7.14,0,0,1,148.37,45a21.4,21.4,0,0,0-.84-30.22L128.88-2.9A7.15,7.15,0,0,1,128.6-13a21.1,21.1,0,0,0,4.87-8.32L130-20.11a18.37,18.37,0,0,1-3.46,5.17,10,10,0,0,0,.39,14.11L145.57,16.8A18.56,18.56,0,0,1,146.3,43a10,10,0,0,0,.4,14.1l-2,2.07A12.84,12.84,0,0,1,144.23,41a15.7,15.7,0,0,0-.62-22.17L125,1.24a12.84,12.84,0,0,1-.51-18.13A16.09,16.09,0,0,0,126-18.74L120.89-17A15.7,15.7,0,0,0,123,3.31l18.64,17.63a12.85,12.85,0,0,1,.51,18.14,15.69,15.69,0,0,0,.62,22.16l-2,2.08a18.56,18.56,0,0,1-.73-26.2,10,10,0,0,0-.4-14.11L121.05,5.38a18.55,18.55,0,0,1-4.19-21l-3.49,1.19a21.41,21.41,0,0,0,5.72,21.9l18.64,17.63A7.13,7.13,0,0,1,138,35.16a21.4,21.4,0,0,0-1.68,27.37c.74,1-.64,2,.3,2.86l.26,2.07a24.27,24.27,0,0,1-1-34.26,4.28,4.28,0,0,0-.16-6L117.13,9.53a24.26,24.26,0,0,1-7-22.87L107-12.28a27.1,27.1,0,0,0,8.14,23.88,1.42,1.42,0,0,1-2,.06A26.89,26.89,0,0,0,98.75,4.59l1.06,3.1a24,24,0,0,1,11.39,6,4.28,4.28,0,0,0,6-.17l2.07,2a7.13,7.13,0,0,1-10.07.28,21.14,21.14,0,0,0-8.33-4.87l1.19,3.48a18.28,18.28,0,0,1,5.18,3.46,10,10,0,0,0,14.11-.39l2.07,2a12.85,12.85,0,0,1-18.14.5,15.18,15.18,0,0,0-1.84-1.49l1.73,5.06a15.7,15.7,0,0,0,20.32-2.12l2.07,2a18.56,18.56,0,0,1-21,4.19l1.2,3.49a21.39,21.39,0,0,0,21.89-5.72l2.07,2a24.24,24.24,0,0,1-22.86,7l1.06,3.09a27.07,27.07,0,0,0,23.88-8.13,1.42,1.42,0,0,1,.05,2A27.11,27.11,0,0,0,135,69.53a1.43,1.43,0,0,1-2,.06,26.89,26.89,0,0,0-14.41-7.07l1.06,3.1a24,24,0,0,1,11.39,6,4.29,4.29,0,0,0,6.05-.17l17.63-18.64a24.24,24.24,0,0,1,34.25-1,4.29,4.29,0,0,0,6-.17l2.07,2a7.14,7.14,0,0,1-10.08.29,21.4,21.4,0,0,0-30.22.84L139.09,73.45a7.15,7.15,0,0,1-10.08.28,21.1,21.1,0,0,0-8.32-4.87l1.19,3.48a18.37,18.37,0,0,1,5.17,3.46,10,10,0,0,0,14.11-.39l17.63-18.65A18.55,18.55,0,0,1,185,56a10,10,0,0,0,14.11-.4l2.07,2A12.85,12.85,0,0,1,183,58.1a15.69,15.69,0,0,0-22.16.62L143.23,77.36a12.84,12.84,0,0,1-18.13.51,16.09,16.09,0,0,0-1.85-1.49L125,81.44a15.7,15.7,0,0,0,20.32-2.12l17.63-18.64a12.85,12.85,0,0,1,18.14-.51,15.69,15.69,0,0,0,22.16-.62l2.07,2a18.55,18.55,0,0,1-26.19.73,10,10,0,0,0-14.11.4L147.37,81.28a18.55,18.55,0,0,1-21,4.19L127.55,89a21.41,21.41,0,0,0,21.9-5.72L167.07,64.6a7.14,7.14,0,0,1,10.08-.28,21.41,21.41,0,0,0,30.23-.85l2.07,2a24.26,24.26,0,0,1-34.26,1,4.27,4.27,0,0,0-6,.17L151.52,85.2a24.26,24.26,0,0,1-22.87,7l1.06,3.1a27.1,27.1,0,0,0,23.88-8.14,1.42,1.42,0,0,1,.06,2,26.89,26.89,0,0,0-7.07,14.41l3.1-1.06a24,24,0,0,1,6-11.39,4.28,4.28,0,0,0-.17-6L157.5,83a7.13,7.13,0,0,1,.29,10.07,21.28,21.28,0,0,0-4.88,8.33l3.49-1.19a18.42,18.42,0,0,1,3.46-5.18,10,10,0,0,0-.4-14.11l2-2.07A12.85,12.85,0,0,1,161.93,97a16.3,16.3,0,0,0-1.5,1.84l5.07-1.73a15.7,15.7,0,0,0-2.12-20.32l2-2.07a18.57,18.57,0,0,1,4.19,21L173,94.56a21.4,21.4,0,0,0-5.72-21.9l2-2.07a24.24,24.24,0,0,1,7,22.86l3.09-1.06a27.07,27.07,0,0,0-8.13-23.88,1.42,1.42,0,0,1,2-.05,27.12,27.12,0,0,0,38.29-1.07,1.42,1.42,0,0,1,.06,2,26.89,26.89,0,0,0-7.07,14.41l3.1-1.06a24,24,0,0,1,6-11.39,4.29,4.29,0,0,0-.17-6L194.83,47.69a24.26,24.26,0,0,1-1-34.26,4.28,4.28,0,0,0-.17-6l2-2.07A7.15,7.15,0,0,1,196,15.39a21.4,21.4,0,0,0,.84,30.22l18.65,17.63a7.15,7.15,0,0,1,.28,10.08,21.07,21.07,0,0,0-4.87,8.33l3.48-1.19a18.28,18.28,0,0,1,3.46-5.18,10,10,0,0,0-.4-14.11L198.75,43.54A18.55,18.55,0,0,1,198,17.35a10,10,0,0,0-.4-14.11l2-2.07a12.85,12.85,0,0,1,.51,18.14,15.69,15.69,0,0,0,.62,22.16L219.35,59.1a12.85,12.85,0,0,1,.51,18.14,16.3,16.3,0,0,0-1.5,1.84l5.07-1.73A15.7,15.7,0,0,0,221.31,57L202.67,39.4a12.85,12.85,0,0,1-.51-18.14A15.69,15.69,0,0,0,201.54-.9l2-2.07a18.55,18.55,0,0,1,.73,26.19,10,10,0,0,0,.4,14.11L223.27,55a18.55,18.55,0,0,1,4.19,21L231,74.78a21.39,21.39,0,0,0-5.72-21.89L206.59,35.26a7.14,7.14,0,0,1-.29-10.08A21.42,21.42,0,0,0,205.46-5l1.95-2.07a24.27,24.27,0,0,1,1,34.26,4.28,4.28,0,0,0,.16,6l18.65,17.62a24.27,24.27,0,0,1,7,22.87l3.09-1.06a27.07,27.07,0,0,0-8.13-23.88,1.41,1.41,0,0,1,2-.05,26.94,26.94,0,0,0,14.41,7.06l-1.06-3.09a24.16,24.16,0,0,1-11.39-6,4.29,4.29,0,0,0-6.05.17l-2.07-2a7.15,7.15,0,0,1,10.08-.28,21.28,21.28,0,0,0,8.33,4.88l-1.19-3.49A18.42,18.42,0,0,1,237,42.47a10,10,0,0,0-14.11.4l-2.07-2A12.85,12.85,0,0,1,239,40.4a16.3,16.3,0,0,0,1.84,1.5l-1.73-5.07A15.7,15.7,0,0,0,218.79,39l-2.07-2a18.56,18.56,0,0,1,21-4.19l-1.19-3.49A21.42,21.42,0,0,0,214.64,35l-2.07-2a24.27,24.27,0,0,1,22.87-7L234.38,23a27.07,27.07,0,0,0-23.88,8.13,1.42,1.42,0,0,1-.05-2,27.13,27.13,0,0,0-1.07-38.29,1.42,1.42,0,0,1,2-.05A26.94,26.94,0,0,0,225.8-2.18l-1.06-3.09a24.16,24.16,0,0,1-11.39-6.05,4.29,4.29,0,0,0-6,.17L189.67,7.5a24.25,24.25,0,0,1-34.25,1,4.29,4.29,0,0,0-6,.16L147.3,6.67a7.14,7.14,0,0,1,10.08-.29,21.4,21.4,0,0,0,30.22-.84L205.23-13.1a7.14,7.14,0,0,1,10.08-.29,21.21,21.21,0,0,0,8.33,4.88L222.45-12a18.28,18.28,0,0,1-5.18-3.46,10,10,0,0,0-14.11.4L185.53,3.58a18.56,18.56,0,0,1-26.2.73,10,10,0,0,0-14.1.4l-2.07-2a12.84,12.84,0,0,1,18.13-.51,15.7,15.7,0,0,0,22.17-.62L201.09-17a12.84,12.84,0,0,1,18.13-.51,17.34,17.34,0,0,0,1.85,1.5l-1.73-5.07A15.7,15.7,0,0,0,199-19L181.39-.34a12.85,12.85,0,0,1-18.14.51,15.69,15.69,0,0,0-22.16.62l-2.08-2a18.56,18.56,0,0,1,26.2-.73,10,10,0,0,0,14.11-.4L197-20.94a18.56,18.56,0,0,1,21-4.19l-1.2-3.49a21.41,21.41,0,0,0-21.9,5.72L177.25-4.26A7.14,7.14,0,0,1,167.17-4a21.42,21.42,0,0,0-30.23.84l-2.07-2A24.27,24.27,0,0,1,169.13-6ZM153.46,10.53a27.12,27.12,0,0,0,38.29-1.07,1.42,1.42,0,0,1,.05,2,27.12,27.12,0,0,0,1.07,38.29,1.43,1.43,0,0,1-2,.06,27.1,27.1,0,0,0-38.29,1.07,1.42,1.42,0,0,1,0-2,27.1,27.1,0,0,0-1.08-38.28A1.43,1.43,0,0,1,153.46,10.53Z"/></g><path class="cls-2" d="M124.52,23.07a57.74,57.74,0,0,0-20.29-5.84L96.12,35.44c.47,0,.95,0,1.43,0Z"/><text class="cls-6" transform="translate(39.25 179.68)">B<tspan class="cls-7" x="7.28" y="0">y </tspan><tspan class="cls-8" x="16.51" y="0">C</tspan><tspan class="cls-7" x="23.86" y="0">CI H</tspan><tspan class="cls-9" x="45.58" y="0">A</tspan><tspan class="cls-7" x="53.4" y="0">UTE-</tspan><tspan class="cls-10" x="78.84" y="0">S</tspan><tspan class="cls-11" x="85.24" y="0">A</tspan><tspan class="cls-12" x="92.3" y="0">V</tspan><tspan class="cls-7" x="99.53" y="0">OIE</tspan></text><path d="M40.16,145.59h5.36v14.65H54.9v4.7H40.16Z"/><path d="M63.15,145.59H78.72v4.56H68.46v2.93h9.29v4.23H68.46v3.07H78.85v4.56H63.15Z"/><path d="M80.93,155.32v0a10,10,0,0,1,10.2-10.07,9.49,9.49,0,0,1,8.22,4l-4,3.12a5.19,5.19,0,0,0-4.23-2.26c-2.71,0-4.62,2.29-4.62,5.11v.06c0,2.9,1.91,5.17,4.62,5.17a5.28,5.28,0,0,0,4.37-2.35l4,2.87a10.19,10.19,0,0,1-18.55-5.64Z"/><path d="M100.57,155.32v0a10.43,10.43,0,0,1,20.85-.06v.06A10.14,10.14,0,0,1,111,165.33,10,10,0,0,1,100.57,155.32Zm15.37,0v0a5,5,0,0,0-5-5.23,4.93,4.93,0,0,0-4.89,5.17v.06a5,5,0,0,0,5,5.22A4.94,4.94,0,0,0,115.94,155.32Z"/><path d="M124.21,145.59h5.37v14.65H139v4.7H124.21Z"/><path d="M141.25,145.59h15.57v4.56H146.56v2.93h9.29v4.23h-9.29v3.07H157v4.56H141.25Z"/><rect x="54.89" y="145.59" width="4.3" height="7.51"/><path d="M71.08,139.05,76,140.63l-4.06,3.53H68.2Z"/></svg>