<svg width="139" height="70" viewBox="0 0 139 70" fill="none" xmlns="http://www.w3.org/2000/svg">


<style>
    path{
        fill: #EB6316; opacity: 0;
        animation: 5.5s opacity infinite;
    }
    .color2{
        fill: #F0821B; opacity: 0;
        animation: 5.5s opacity infinite;
    }
    @keyframes opacity {
        15% {opacity: 0} 
        35% {opacity: 1}
        65% {opacity: 1} 
        85% {opacity: 0}
    }
    #hg2 {animation-delay: 1.5s}
    #hg3 {animation-delay: 2s}
    #hg4 {animation-delay: 2.5s}
    #hg5 {animation-delay: 3s}
    #EB6316


    papeterieV2:hover {
        animation-play-state: paused;
    }
</style>



<path id='hg5' class='color2' d="M139 34.439V49.8874L130.326 56.4803L122.827 54.3383V62.5725L113.11 70L106.362 67.4685V59.6052L99.7838 57.1387V54.8298L93.7787 53.3461V51.7049L86.4392 48.5707V46.5956L82.2666 45.7796L76.5905 50.5458V58.6223L56.4044 50.3881V38.6952L53.5664 37.8699L52.2319 36.0617L46.7249 35.0695L46.5933 33.8919L46.3866 32.1115L36.3781 28.6528L34.3952 30.053L30.5422 32.7699L30.0347 35.4034L23.5316 41.1617L14.1904 36.887L14.5193 25.6855L12.3485 24.3688L11.6812 22.8852L0 18.6104L11.6812 11.6929L19.688 14.4933V6.75056L29.2078 0L46.0577 5.2762H48.2285L135.166 33.0944L136.998 33.5952L139 34.439Z" fill="#F0821B"/>
<path id='hg4' d="M113.109 70V54.8668L114.03 53.5037V51.2041L122.826 46.7532V54.3383V62.5725L113.109 70Z" fill="#EB6316"/>
<path id='hg3' d="M114.125 45.7148L121.69 38.6675V46.7533L114.125 45.7148Z" fill="#EB6316"/>
<path id='hg2' d="M130.326 56.4804V41.0412V38.6674L131.463 36.8036L136.998 33.5952L139 34.439V49.8874L130.326 56.4804Z" fill="#EB6316"/>
<path id='hg5' d="M19.6875 14.4932L22.488 15.606L27.262 9.53231L19.6875 6.75049V14.4932Z" fill="#EB6316"/>
<path id='hg4' d="M22.4883 15.6061L23.475 14.345L115.017 44.5649L114.124 45.7147L22.4883 15.6061Z" fill="#EB6316"/>
<path id='hg2' d="M11.6816 22.8853L34.3957 30.0531L30.5426 32.77L30.0352 35.4035L23.532 41.1618L14.1908 36.8871L14.5197 25.6856L12.3489 24.3689L11.6816 22.8853Z" fill="#EB6316"/>
<path id='hg3' d="M113.11 54.8668V69.9999L106.363 67.4685V59.6052L99.7842 57.1386V54.8297L93.7791 53.3461V51.7048L86.4396 48.5706V46.5955L82.2671 45.7795L76.5909 50.5457V58.6223L56.4048 50.3881V38.6951L53.5668 37.8699L52.2323 36.0617L46.7253 35.0695L46.5938 33.8918L113.11 54.8668Z" fill="#EB6316"/>
<path id='hg5' d="M121.689 38.6675L130.326 40.3551V56.4804L122.827 54.3384V46.7533H121.689V38.6675Z" fill="#EB6316"/>
</svg>
