<svg width="116" height="127" viewBox="0 0 116 127" fill="none" xmlns="http://www.w3.org/2000/svg">
<path d="M115 48.6636V69.4067L111.024 72.4673L103.578 70.3119V78.5979L93.9298 86.0722L87.2301 83.5248V75.6119L80.6983 73.1299V70.8064L74.7357 69.3134V67.6618L67.4481 64.5079V62.5203L63.305 61.6992L57.669 66.4954V74.6228L37.6257 66.3368V54.5702L34.8077 53.7397L33.4827 51.9202L28.0146 50.9217L27.884 49.7367L27.6787 47.9451L17.7411 44.4646L15.7722 45.8736L11.9464 48.6076L11.4425 51.2577L4.98538 57.0523L1.6635 55.5127V30.4119L1.16895 30.2159V22.4244L1.6635 22.0698L10.6214 15.6313L27.3521 20.9408H29.5076L115 48.6636Z" fill="#F0821B"/>
<path d="M93.9297 86.0721V70.8437L94.8441 69.472V67.1579L103.578 62.6882V70.3118V78.5978L93.9297 86.0721Z" fill="#EB6316"/>
<path d="M94.9375 61.6337L102.449 54.542V62.6881L94.9375 61.6337Z" fill="#EB6316"/>
<path d="M115 50.9868V69.4065L111.025 72.4671V54.542L112.154 52.6571L115 50.9868Z" fill="#EB6316"/>
<path d="M8.68985 25.2237L4.9294 30.0665L3.94963 31.3356L1.6635 30.4118L1.16895 30.2158V22.4243L1.6635 22.6109L8.68985 25.2237Z" fill="#EB6316"/>
<path d="M3.9502 31.3357L4.92997 30.0667L95.8246 60.4768L94.9382 61.6339L3.9502 31.3357Z" fill="#EB6316"/>
<path d="M15.7728 45.8735L11.947 48.6075L11.4431 51.2575L4.98595 57.0522L1.66406 55.5125V41.3572L15.7728 45.8735Z" fill="#EB6316"/>
<path d="M93.9296 70.8436V86.072L87.2299 83.5246V75.6118L80.6981 73.1298V70.8063L74.7355 69.3133V67.6617L67.4478 64.5078V62.5202L63.3048 61.6991L57.6688 66.4953V74.6227L37.6255 66.3367V54.5701L34.8075 53.7396L33.4825 51.9201L28.0144 50.9216L27.8838 49.7366L93.9296 70.8436Z" fill="#EB6316"/>
<path d="M102.449 54.542L111.025 56.2403V72.4671L103.578 70.3116V62.6881H102.449V54.542Z" fill="#EB6316"/>
<path d="M115 1H1.66406V126H115V1Z" stroke="white" stroke-width="2" stroke-miterlimit="10"/>
</svg>
