<svg width="155" height="149" viewBox="0 0 155 149" fill="none" xmlns="http://www.w3.org/2000/svg">

<style>
    path{
        fill: #EB6316; opacity: 0;
        animation: 5.5s opacity infinite;
    }
    .color2{
        fill: #F0821B; opacity: 0;
        animation: 5.5s opacity infinite;
    }
    @keyframes opacity {
        15% {opacity: 0} 
        35% {opacity: 1}
        65% {opacity: 1} 
        85% {opacity: 0}
    }
    #hg2 {animation-delay: 1s}
    #hg3 {animation-delay: 1.5s}
    #hg4 {animation-delay: 2s}
    #hg5 {animation-delay: 2.5s}
    #EB6316


    usineV2:hover > * {
        animation-play-state: paused;
    }
</style>


<path id='hg5' class='color2' d="M155 86.6998V90.0547L153.331 91.5729L148.458 92.6412H131.59C131.59 92.6412 132.199 98.7325 131.131 99.9508C130.063 101.169 128.854 102.078 126.108 101.928C125.171 105.283 115.753 118.984 109.062 123.398C102.37 127.812 84.0872 134.053 78.3051 134.212C78.3051 137.867 78.605 148.372 78.605 148.372L69.9272 137.127L69.7772 130.126C69.7772 130.126 55.158 128.149 52.4216 126.781C52.2623 124.344 52.2623 122.817 52.2623 122.817C42.6612 119.173 34.6824 112.212 29.7713 103.193H25.8353V104.421L3.00693 104.327L0.364229 102.453C0.00596755 100.434 -0.0885356 98.3769 0.0830908 96.3335C0.125785 95.2398 0.561693 94.1983 1.31073 93.4003C3.5692 91.526 10.5508 89.8111 10.5508 89.8111L10.9256 83.776L11.6847 73.0271L13.559 72.8397V60.1604H28.6561L31.4675 58.6516C31.4675 58.6516 31.28 53.563 32.2265 52.0917C32.5955 51.5313 33.0092 51.0017 33.4636 50.508C34.4007 49.4397 35.4221 48.5119 35.4221 48.5119L36.7997 45.8973L40.5482 38.8314H45.3651L47.661 24.8494H50.1538C50.1538 24.8494 50.2475 20.5949 50.7161 19.7421C50.8191 17.9428 51.6532 2.24594 51.6532 2.24594C51.7362 1.87675 51.9396 1.54565 52.2314 1.30474C52.5232 1.06383 52.8868 0.926801 53.265 0.915222C53.585 0.882653 53.9082 0.917107 54.2141 1.01639C54.5199 1.11567 54.8018 1.2776 55.0416 1.49185C55.2814 1.7061 55.474 1.96798 55.607 2.26078C55.74 2.55357 55.8105 2.87087 55.814 3.19244C55.814 4.70121 56.292 17.6617 56.292 17.6617H57.9975C58.0329 18.134 58.1941 18.5882 58.4644 18.9771C58.7346 19.366 59.1041 19.6755 59.5344 19.8733C60.6706 20.598 61.613 21.5887 62.2802 22.7596L65.3259 23.5187L67.9123 25.646V32.5058L68.7089 34.1645L67.9123 40.1152L90.8813 56.5618L110.851 41.0243L112.829 41.9614V46.647L101.864 55.6341C101.864 55.6341 118.152 66.8796 119.829 69.7941C121.922 73.5607 123.736 77.4759 125.255 81.5081C125.405 81.9205 125.527 82.2953 125.621 82.6327C129.116 82.1735 130.644 83.5698 130.644 83.5698L131.403 85.5472H153.669L155 86.6998Z" fill="#F0821B"/>
<path id='hg2' d="M155.001 86.6997V90.0546L153.333 91.5728L148.46 92.6411H132.088L131.554 92.5286H37.3633V85.4814H153.633L155.001 86.6997Z" fill="#EB6316"/>
<path id='hg3' d="M56.2923 17.6619C56.2923 17.6619 56.058 19.7892 54.5586 20.4733C53.0592 21.1574 50.707 19.7142 50.707 19.7142C50.8101 17.9149 51.6442 2.21802 51.6442 2.21802C51.6442 2.21802 53.3966 3.97045 54.3337 4.04542C54.6335 4.05134 54.9291 3.97498 55.1885 3.82463C55.4479 3.67427 55.6611 3.45569 55.805 3.19263C55.8144 4.66392 56.2923 17.6619 56.2923 17.6619Z" fill="#EB6316"/>
<path id='hg4' d="M67.9114 32.5057L62.5135 36.4042V25.2805H59.2242C59.2242 25.2805 59.2242 21.9911 58.5401 21.1665C57.856 20.3418 56.291 21.1665 56.291 21.1665L54.5573 20.473L54.3418 18.5987L56.291 17.6616H57.9966C58.032 18.1339 58.1931 18.5881 58.4634 18.977C58.7337 19.366 59.1032 19.6754 59.5335 19.8732C60.6697 20.598 61.6121 21.5887 62.2793 22.7596L65.3249 23.5187L67.9114 25.6459V32.5057Z" fill="#EB6316"/>
<path id='hg2' d="M62.5137 41.7454V36.4041L64.3503 37.2288L68.7077 34.1646L67.9112 40.1149L64.2379 42.6919L62.5137 41.7454Z" fill="#EB6316"/>
<path id='hg3' d="M42.9554 92.5288C42.9554 92.5288 45.9824 104.777 55.7378 108.46C65.4933 112.143 76.2141 114.786 86.2413 111.487C96.2686 108.188 104 99.2012 103.831 92.6413C103.663 86.0814 103.278 81.2739 99.9796 78.3876C96.6809 75.5012 83.5799 67.2639 83.5799 67.2639C83.5799 67.2639 75.5206 70.1502 75.1457 72.4837C74.7709 74.8171 75.7924 116.454 75.7924 116.454H70.6569L70.1321 76.7476C70.1321 76.7476 69.3918 70.5626 76.2703 67.2639L80.8247 65.0991L66.393 53.7318L75.0989 47.8279L88.631 57.8364C88.631 57.8364 96.456 57.3116 98.8269 57.7521C101.198 58.1925 100.757 60.7415 103.128 62.1472C105.499 63.5529 110.691 65.7457 110.691 68.5571C110.691 71.3685 106.118 75.3232 103.306 75.6793C105.068 78.8374 107.777 80.3649 107.992 89.0615C108.208 97.758 104.909 105.068 97.5618 109.678C90.2147 114.289 83.2706 117.175 72.7092 116.894C62.1478 116.613 53.2638 114.083 45.7949 105.433C38.326 96.7834 39.235 95.0028 38.7103 92.6132C38.1855 90.2235 42.9554 92.5288 42.9554 92.5288Z" fill="#EB6316"/>
<path id='hg4' d="M101.865 55.6426L98.5664 53.5342L112.829 41.9426V46.6561L101.865 55.6426Z" fill="#EB6316"/>
<path id='hg2' d="M78.2674 134.212L75.7559 123.426V144.717L78.5672 148.372L78.2674 134.212Z" fill="#EB6316"/>
<path id='hg3' d="M69.7395 130.098C69.7395 130.098 55.1203 128.121 52.3839 126.753C52.2246 124.316 52.2246 122.789 52.2246 122.789C52.2246 122.789 62.1582 125.309 66.1409 125.6L69.6271 125.9L69.7395 130.098Z" fill="#EB6316"/>
<path id='hg5' class='color2' d="M154.999 86.7V90.0549L108.03 90.8796C108.03 90.7952 108.03 90.5797 108.03 90.0362C108.03 88.8554 107.73 85.463 107.73 85.463L125.255 81.5083C125.405 81.9206 125.527 82.2955 125.62 82.6329C129.116 82.1737 130.643 83.57 130.643 83.57L131.402 85.5473H153.668L154.999 86.7Z" fill="#F0821B"/>
<path id='hg4' d="M11.2717 78.8281L27.5402 79.3342V84.7789H10.8594L11.2717 78.8281Z" fill="#EB6316"/>
<path id='hg2' d="M42.5155 59.3071L41.3067 62.2683L38.3455 63.6364C38.3455 63.6364 37.8676 65.7167 35.375 64.9951C33.4092 64.3374 31.5058 63.5064 29.687 62.5119L28.6562 60.1599L31.4675 58.6512C31.4675 58.6512 31.28 53.5629 32.2265 52.0917C32.5954 51.5313 33.0091 51.0017 33.4634 50.5081L35.9935 51.82H40.557V53.9002L41.4379 56.3835L42.5155 59.3071Z" fill="#EB6316"/>
<path id='hg3' d="M47.3877 42.692V44.3787L46.0571 47.1337C46.0571 47.1337 41.2124 45.8968 40.5471 45.8968C39.8818 45.8968 36.7988 45.8968 36.7988 45.8968L40.5471 38.8313H45.3636L47.3877 42.692Z" fill="#EB6316"/>
<path id='hg4' d="M25.8353 103.165V104.393L3.00693 104.299L0.364229 102.425C0.00596755 100.406 -0.0885356 98.349 0.0830908 96.3057C0.355477 98.164 1.18549 99.896 2.46339 101.272C3.72048 102.171 5.14484 102.808 6.65235 103.147C8.96705 103.634 25.8353 103.165 25.8353 103.165Z" fill="#EB6316"/>
<path id='hg2' d="M131.093 99.9508C130.035 101.169 128.816 102.078 126.07 101.928C125.133 105.283 115.715 118.984 109.024 123.398C102.333 127.812 84.0497 134.053 78.2676 134.212L76.459 126.49C76.459 126.49 103.13 120.015 108.921 112.199C114.713 104.383 117.992 98.2077 118.152 92.6881C121.29 92.0748 124.476 91.7299 127.673 91.6572L131.553 92.5944V92.7068C131.553 92.7068 132.162 98.7325 131.093 99.9508Z" fill="#EB6316"/>
<path id='hg3' d="M131.404 85.4816H118.134C118.003 81.0865 113.795 74.0674 113.795 74.0674L119.83 69.8035C121.923 73.5671 123.736 77.4791 125.256 81.5082C125.406 81.9205 125.528 82.2954 125.621 82.6327C129.117 82.1735 130.644 83.5699 130.644 83.5699L131.404 85.4816Z" fill="#EB6316"/>
<path id='hg4' d="M45.7595 36.4043C45.7595 36.4043 52.0289 39.7873 53.5002 39.7873C54.9715 39.7873 60.1913 38.8502 60.1913 38.8502H62.5153L63.7149 39.7873L62.5153 41.7459C62.5153 41.7459 59.0199 43.8732 56.2928 43.8732C53.3034 43.6673 50.3299 43.2729 47.3901 42.6924L44.1289 40.8182L45.3565 38.8689L45.7595 36.4043Z" fill="#EB6316"/>
<path id='hg2' d="M47.6512 24.8496L54.3419 27.8014L62.5131 25.3088V29.8629L54.3419 31.9338L46.9297 29.2163L47.6512 24.8496Z" fill="#EB6316"/>
<path id='hg3' d="M42.5175 59.3076L56.2933 43.8731L62.5158 41.7458L64.2401 42.6923L67.9136 40.1152L71.5122 42.6923L64.4275 46.4877L61.5693 49.7114L56.2933 56.7024L49.4616 59.8699L41.3086 62.2689L42.5175 59.3076Z" fill="#EB6316"/>
<path id='hg4' d="M29.6879 62.5125L26.8203 62.2689V73.5144H27.5419V79.3715L32.7242 76.7194L32.2744 75.8291L32.3775 73.1583L32.7242 71.6964L36.8007 71.5933C36.8007 71.5933 38.9655 64.6398 41.3083 62.2689C43.6511 59.898 38.7031 60.4883 38.7031 60.4883L29.6879 62.5125Z" fill="#EB6316"/>
</svg>
