<svg width="132" height="178" viewBox="0 0 132 178" fill="none" xmlns="http://www.w3.org/2000/svg">
<path d="M0.06 103.63L0.43 98.4199L0 104.59L0.06 103.63Z" fill="#F0821B"/>
<path d="M130.72 105.49V113.13H128.78C128.78 113.13 129.43 119.63 128.29 120.93C127.15 122.23 125.86 123.2 122.93 123.04C121.93 126.62 111.88 141.24 104.74 145.95C97.6 150.66 78.09 157.32 71.92 157.49C71.92 160.78 72.15 169.28 72.22 171.85V172.6L69.22 168.7L63 160.57L62.84 153.1C62.84 153.1 47.22 151 44.3 149.53C44.13 146.93 44.13 145.3 44.13 145.3C33.8848 141.412 25.3707 133.984 20.13 124.36H16V125.67H9.29004V78.4701H19L22 76.8601C22 76.8601 21.8 71.4301 22.81 69.8601C23.2037 69.2621 23.6452 68.6969 24.13 68.1701C25.15 67.0001 26.23 66.0001 26.23 66.0001L27.67 63.2801L31.67 55.7401H36.81L39.26 40.8201H41.92C41.92 40.8201 42.02 36.2801 42.52 35.3701C42.63 33.4501 43.52 16.7001 43.52 16.7001C43.6086 16.3061 43.8256 15.9528 44.137 15.6957C44.4484 15.4387 44.8364 15.2924 45.24 15.2801C45.5821 15.2396 45.9288 15.271 46.258 15.3725C46.5871 15.4739 46.8914 15.6431 47.1514 15.8691C47.4113 16.0951 47.621 16.3729 47.7672 16.6848C47.9134 16.9967 47.9927 17.3357 48 17.6801C48 19.2901 48.51 33.1201 48.51 33.1201H50.33C50.3678 33.6241 50.5398 34.1087 50.8282 34.5238C51.1166 34.9388 51.5109 35.269 51.97 35.4801C53.1824 36.2535 54.1881 37.3106 54.9 38.5601L58.15 39.3701L60.91 41.6401V49.0001L61.76 50.7701L60.91 57.1201L64.75 59.8701L85.4 74.6301L106.69 58.0501L108.8 59.0501V64.0501L97.1 73.6501C97.1 73.6501 114.48 85.6501 116.27 88.7601C118.501 92.7633 120.436 96.9244 122.06 101.21C122.22 101.65 122.35 102.05 122.45 102.41C126.18 101.92 127.81 103.41 127.81 103.41L128.62 105.52L130.72 105.49Z" fill="#F0821B"/>
<path d="M130.72 105.49V113.13H129.35L128.78 113.01H28.2695V105.49H130.72Z" fill="#EB6316"/>
<path d="M48.4698 33.1201C48.4698 33.1201 48.2198 35.3901 46.6198 36.1201C45.0198 36.8501 42.5098 35.3101 42.5098 35.3101C42.6198 33.3901 43.5098 16.6401 43.5098 16.6401C43.5098 16.6401 45.3198 18.4801 46.3798 18.5601C46.7049 18.5787 47.0288 18.5062 47.315 18.3508C47.6012 18.1953 47.8384 17.963 47.9998 17.6801C47.9998 19.2901 48.4698 33.1201 48.4698 33.1201Z" fill="#EB6316"/>
<path d="M60.8696 48.9999L55.1096 53.1599V41.2799H51.5996C51.5996 41.2799 51.5996 37.7699 50.8696 36.8899C50.1396 36.0099 48.4697 36.8899 48.4697 36.8899L46.6196 36.1499L46.3896 34.1499L48.4697 33.1499H50.2896C50.3274 33.6539 50.4994 34.1386 50.7878 34.5536C51.0762 34.9686 51.4705 35.2988 51.9296 35.5099C53.142 36.2833 54.1477 37.3404 54.8596 38.5899L58.1096 39.3999L60.8696 41.6699V48.9999Z" fill="#EB6316"/>
<path d="M55.1104 58.82V53.12L57.0704 54L61.7204 50.73L60.8703 57.08L56.9504 59.83L55.1104 58.82Z" fill="#EB6316"/>
<path d="M34.2404 113C34.2404 113 37.4704 126.07 47.8804 130C58.2904 133.93 69.7304 136.75 80.4304 133.23C91.1304 129.71 99.3404 120.1 99.2004 113.1C99.0604 106.1 98.6104 101 95.0904 97.9201C91.5704 94.8401 77.5904 86.0501 77.5904 86.0501C77.5904 86.0501 68.9904 89.1301 68.5904 91.6201C68.1904 94.1101 69.2704 138.54 69.2704 138.54H63.8004L63.2404 96.1701C63.2404 96.1701 62.4504 89.5701 69.7904 86.0501L74.6504 83.7401L59.2404 71.6101L68.5404 65.3101L83.0004 76.0001C83.0004 76.0001 91.3504 75.4401 93.8804 75.9101C96.4104 76.3801 95.9404 79.1001 98.4704 80.6001C101 82.1001 106.53 84.4401 106.53 87.4401C106.53 90.4401 101.66 94.6601 98.6604 95.0401C100.53 98.4101 103.43 100.04 103.66 109.32C103.89 118.6 100.36 126.4 92.5304 131.32C84.7004 136.24 77.3004 139.31 66.0004 139C54.7004 138.69 45.2504 136 37.2704 126.77C29.2904 117.54 30.2704 115.64 29.7204 113.09C29.1704 110.54 34.2404 113 34.2404 113Z" fill="#EB6316"/>
<path d="M97.1001 73.65L93.5801 71.4L108.8 59.03V64.06L97.1001 73.65Z" fill="#EB6316"/>
<path d="M71.9205 157.49L69.2305 145.98V168.7L72.2405 172.6L71.9205 157.49Z" fill="#EB6316"/>
<path d="M62.8199 153.1C62.8199 153.1 47.2199 151 44.2999 149.53C44.1299 146.93 44.1299 145.3 44.1299 145.3C44.1299 145.3 54.7299 147.99 58.9799 148.3L62.6999 148.62L62.8199 153.1Z" fill="#EB6316"/>
<path d="M130.72 105.49V110.78L103.72 111.27C103.72 111.18 103.72 110.96 103.72 110.39C103.72 110.16 103.72 109.86 103.72 109.52C103.65 108.03 103.45 105.79 103.42 105.52L114.09 103L122.09 101.17C122.25 101.61 122.38 102.01 122.48 102.37C126.21 101.88 127.84 103.37 127.84 103.37L128.65 105.48L130.72 105.49Z" fill="#F0821B"/>
<path d="M17.7898 98.9302V104.74H9.25977V98.6602L17.7898 98.9302Z" fill="#EB6316"/>
<path d="M33.77 77.5599L32.48 80.7199L29.32 82.1799C29.32 82.1799 28.81 84.3999 26.15 83.6299C24.0529 82.9345 22.0216 82.0544 20.08 80.9999L19 78.4699L22 76.8599C22 76.8599 21.8 71.4299 22.81 69.8599C23.2037 69.2619 23.6451 68.6967 24.13 68.1699L26.83 69.5699H31.7V71.7899L32.64 74.4399L33.77 77.5599Z" fill="#EB6316"/>
<path d="M39.0002 59.83V61.63L37.5802 64.57C37.5802 64.57 32.3702 63.24 31.7002 63.27C31.0302 63.3 27.7002 63.27 27.7002 63.27L31.7002 55.73H36.8402L39.0002 59.83Z" fill="#EB6316"/>
<path d="M16 124.36V125.67H9.29004V124.54C13 124.44 16 124.36 16 124.36Z" fill="#EB6316"/>
<path d="M128.29 120.93C127.16 122.23 125.86 123.2 122.93 123.04C121.93 126.62 111.88 141.24 104.74 145.95C97.6 150.66 78.09 157.32 71.92 157.49L70 149.2C70 149.2 98.46 142.29 104.64 133.95C110.82 125.61 114.32 119.02 114.49 113.13C117.839 112.476 121.238 112.108 124.65 112.03L128.79 113.03L128.84 113.15H128.79C128.79 113.15 129.43 119.63 128.29 120.93Z" fill="#EB6316"/>
<path d="M128.62 105.49H114.46C114.32 100.8 109.83 93.31 109.83 93.31L116.27 88.76C118.501 92.7632 120.436 96.9243 122.06 101.21C122.22 101.65 122.35 102.05 122.45 102.41C126.18 101.92 127.81 103.41 127.81 103.41L128.62 105.49Z" fill="#EB6316"/>
<path d="M37.2295 53.1201C37.2295 53.1201 43.9195 56.7301 45.4895 56.7301C47.0595 56.7301 52.6295 55.7301 52.6295 55.7301H55.1095L56.3795 56.7301L55.1095 58.8201C55.1095 58.8201 51.3795 61.0901 48.4695 61.0901C45.2896 60.8691 42.1266 60.4483 38.9995 59.8301L35.5195 57.8301L36.8295 55.7501L37.2295 53.1201Z" fill="#EB6316"/>
<path d="M39.2505 40.79L46.3905 43.94L55.1105 41.28V46.15L46.3905 48.35L38.4805 45.45L39.2505 40.79Z" fill="#EB6316"/>
<path d="M33.7705 77.5601L48.4705 61.0901L55.1105 58.8201L56.9505 59.8301L60.8705 57.0801L64.7105 59.8301L57.1405 63.8801L54.1005 67.3201L48.4705 74.7801L41.1705 78.1601L32.4805 80.7201L33.7705 77.5601Z" fill="#EB6316"/>
<path d="M20.08 80.9999L17 80.7199V92.7199H17.77V98.9699L23.3 96.1399L22.82 95.1899L23 92.2999L23.37 90.7399L27.72 90.6299C27.72 90.6299 30.03 83.2899 32.53 80.7199C35.03 78.1499 29.75 78.8199 29.75 78.8199L20.08 80.9999Z" fill="#EB6316"/>
<path d="M130.72 1H9.25977V176.52H130.72V1Z" stroke="white" stroke-width="2" stroke-miterlimit="10"/>
</svg>
